<svg width="45" height="39" viewBox="0 0 45 39" fill="none" xmlns="http://www.w3.org/2000/svg">
<path d="M16.4355 31.2773C16.4355 21.3485 16.4443 20.1214 16.4355 20.117C16.418 20.1117 16.1473 20.1152 12.6976 20.1152C11.9856 20.1152 11.3713 19.5686 11.3397 18.8575C11.3054 18.1025 11.9083 17.4785 12.6563 17.4785C16.142 17.4785 16.418 17.482 16.4355 17.4768C16.4443 17.4724 16.4355 16.354 16.4355 7.72266C16.4355 6.99492 17.0262 6.4043 17.7539 6.4043H32.6092C29.1305 2.78408 24.2675 0.603516 18.9844 0.603516C8.5166 0.603516 0 9.08057 0 19.5C0 29.9194 8.5166 38.3965 18.9844 38.3965C24.2648 38.3965 29.1287 36.2177 32.6092 32.5957H17.7539C17.0262 32.5957 16.4355 32.0051 16.4355 31.2773ZM11.25 11.8535H13.3181C14.03 11.8535 14.6443 12.4002 14.676 13.1112C14.7103 13.8662 14.1073 14.4902 13.3594 14.4902H11.2913C10.5794 14.4902 9.96504 13.9436 9.9334 13.2325C9.89912 12.4775 10.5021 11.8535 11.25 11.8535ZM12.6563 25.7402H8.47881C7.7669 25.7402 7.15254 25.1936 7.1209 24.4825C7.08662 23.7275 7.68955 23.1035 8.4375 23.1035H12.6149C13.3269 23.1035 13.9412 23.6502 13.9729 24.3612C14.0071 25.1162 13.4042 25.7402 12.6563 25.7402Z" fill="#FF0000"/>
<path d="M43.2219 9.04102H20.7607L32.1559 17.8262L43.2219 9.04102Z" fill="#FF0000"/>
<path d="M32.9877 20.5326C32.5147 20.9081 31.8444 20.9153 31.3631 20.5441L19.0723 11.0686V28.6407C19.0723 29.3688 19.6625 29.959 20.3906 29.959H43.6816C44.4097 29.959 45 29.3688 45 28.6407V10.9961L32.9877 20.5326Z" fill="#FF0000"/>
</svg>
