<svg width="272" height="272" viewBox="0 0 272 272" fill="none" xmlns="http://www.w3.org/2000/svg">
<circle cx="136" cy="136" r="136" fill="#FF0000"/>
<path d="M191.564 97.2748C192.969 97.2748 194.324 96.7173 195.323 95.7177L210.05 80.9908C212.018 79.0229 210.737 75.6456 207.964 75.4715L200.127 74.9796L205.241 69.8659C206.099 69.0078 206.099 67.6165 205.241 66.7587C204.382 65.9006 202.991 65.9006 202.133 66.7587L197.02 71.8724L196.528 64.0355C196.353 61.2579 192.973 59.9852 191.008 61.9493L176.281 76.6762C175.203 77.7546 174.639 79.2461 174.735 80.7681L175.241 88.8329C162.95 78.3529 147.109 72.3429 130.328 72.3429C92.011 72.3429 61 103.35 61 141.671C61 158.965 67.4043 175.529 79.0337 188.311C79.8507 189.209 81.2403 189.274 82.1377 188.458C83.0353 187.641 83.1009 186.252 82.2844 185.354C71.3928 173.383 65.3945 157.869 65.3945 141.671C65.3945 105.866 94.5238 76.7372 130.328 76.7372C147.107 76.7372 162.896 83.1678 174.706 94.186L164.68 104.212C155.613 95.8888 143.54 90.7955 130.328 90.7955C102.276 90.7955 79.4532 113.618 79.4532 141.671C79.4532 149.744 81.4008 157.786 85.0864 164.927C85.0867 164.927 85.0867 164.927 85.087 164.928C93.6267 181.475 110.825 192.546 130.329 192.546C154.36 192.546 175.262 175.571 180.147 152.015C180.393 150.826 179.63 149.663 178.441 149.417C177.253 149.171 176.09 149.934 175.844 151.122C171.394 172.578 152.253 188.151 130.329 188.151C112.865 188.151 97.0257 178.48 88.9922 162.912C88.9922 162.912 88.9919 162.912 88.9919 162.911C85.5789 156.298 83.848 149.151 83.848 141.671C83.848 116.041 104.699 95.19 130.329 95.19C142.331 95.19 153.305 99.7902 161.573 107.318L151.637 117.255C145.934 112.272 138.478 109.248 130.329 109.248C112.451 109.248 97.9067 123.793 97.9067 141.67C97.9067 159.548 112.451 174.092 130.329 174.092C148.206 174.092 162.751 159.548 162.751 141.67C162.751 133.521 159.727 126.064 154.744 120.362L164.681 110.425C172.151 118.626 176.74 129.494 176.808 141.4C176.815 142.609 177.798 143.585 179.005 143.585H179.018C180.232 143.578 181.21 142.588 181.203 141.375C181.128 128.269 176.047 116.312 167.789 107.317L177.815 97.2906C188.786 109.021 195.262 124.716 195.262 141.67C195.262 177.475 166.133 206.605 130.328 206.605C115.496 206.605 100.992 201.474 89.4891 192.157C88.5455 191.393 87.1629 191.538 86.3986 192.481C85.6348 193.424 85.7801 194.808 86.7229 195.572C99.0059 205.52 114.492 210.999 130.328 210.999C168.646 210.999 199.657 179.992 199.657 141.671C199.657 126.667 194.942 112.388 186.022 100.376C185.098 99.1328 184.137 97.9272 183.143 96.7563C191.756 97.2974 191.292 97.2748 191.564 97.2748ZM158.356 141.671C158.356 157.125 145.783 169.698 130.328 169.698C114.874 169.698 102.301 157.125 102.301 141.671C102.301 126.217 114.874 113.644 130.328 113.644C137.266 113.644 143.623 116.179 148.522 120.369L138.523 130.368C136.219 128.694 133.388 127.702 130.328 127.702C122.626 127.702 116.359 133.968 116.359 141.671C116.359 149.373 122.626 155.64 130.328 155.64C138.031 155.64 144.298 149.373 144.298 141.671C144.298 138.611 143.306 135.78 141.631 133.476L151.63 123.477C155.821 128.377 158.356 134.733 158.356 141.671ZM128.774 143.225C129.633 144.083 131.024 144.083 131.882 143.225L138.468 136.638C139.377 138.102 139.903 139.826 139.903 141.671C139.903 146.951 135.608 151.246 130.328 151.246C125.048 151.246 120.753 146.95 120.753 141.671C120.753 136.392 125.048 132.097 130.328 132.097C132.173 132.097 133.898 132.623 135.361 133.531L128.774 140.118C127.916 140.975 127.916 142.367 128.774 143.225ZM179.121 80.4927C179.104 80.2287 179.202 79.9701 179.389 79.7834L192.302 66.8703L192.876 76.0156L179.669 89.2232L179.121 80.4927ZM182.776 92.3304L195.984 79.1228L205.129 79.6967L192.216 92.6102C192.029 92.7971 191.768 92.8964 191.506 92.8782L182.776 92.3304Z" fill="white"/>
</svg>
