<svg width="272" height="272" viewBox="0 0 272 272" fill="none" xmlns="http://www.w3.org/2000/svg">
<circle cx="136" cy="136" r="136" fill="#FF0000"/>
<path d="M186.588 63.2791L188.861 71.7621L94.9544 96.783L97.2306 105.278L80.2527 109.827L82.5275 118.317L74.0383 120.591L69.4891 103.613L61 105.888L72.3732 148.333L80.8623 146.058L76.3131 129.08L84.8022 126.805L87.077 135.295L104.055 130.745L106.325 139.217L125.064 134.278C126.247 136.03 127.841 137.484 129.705 138.501L98.1153 202.207H87.6585V210.995H103.567L131.601 154.46V202.207H122.813V210.995H149.178V202.207H140.39V154.46L168.423 210.995H184.332V202.207H173.875L142.286 138.501C146.132 136.404 148.82 132.446 149.142 127.845L200.235 114.209L202.511 122.702L211 120.428L195.078 61.0046L186.588 63.2791ZM93.291 124.531L91.0163 116.042L99.5054 113.767L101.78 122.256L93.291 124.531ZM105.722 103.01L174.152 84.7767L180.978 110.253L146.797 119.375C144.411 115.969 140.46 113.735 135.996 113.735C129.114 113.735 123.451 119.036 122.866 125.768L112.549 128.488L105.722 103.01ZM135.995 131.313C133.572 131.313 131.601 129.341 131.601 126.918C131.601 124.495 133.572 122.524 135.995 122.524C138.418 122.524 140.39 124.495 140.39 126.918C140.39 129.341 138.418 131.313 135.995 131.313ZM189.469 107.987L182.644 82.5142L191.136 80.2515L197.96 105.72L189.469 107.987Z" fill="white"/>
</svg>
