<svg width="272" height="272" viewBox="0 0 272 272" fill="none" xmlns="http://www.w3.org/2000/svg">
<circle cx="136" cy="136" r="136" fill="#FF0000"/>
<g clip-path="url(#clip0)">
<path d="M210.52 124.156L186.5 87.5271C185.958 86.7016 185.037 86.2041 184.05 86.2041H88.0638C87.0786 86.2041 86.1595 86.6992 85.6175 87.5222L61.5584 124.041C61.4438 124.199 61.3445 124.37 61.2616 124.552C60.7867 125.599 60.9683 126.827 61.7259 127.692L73.9208 141.616C74.9869 142.833 76.8373 142.955 78.0543 141.89C79.2713 140.823 79.3937 138.973 78.3279 137.756L70.3893 128.691H109.794L129.595 196.293L107.219 170.745C106.153 169.527 104.303 169.405 103.086 170.471C101.869 171.537 101.746 173.388 102.812 174.604L133.805 209.992C134.361 210.627 135.165 210.992 136.009 210.992C136.853 210.992 137.656 210.627 138.212 209.992L171.21 172.307C172.276 171.089 172.153 169.239 170.935 168.173C169.718 167.107 167.867 167.23 166.802 168.447L142.424 196.289L162.224 128.691H201.612L183.394 149.498C182.328 150.715 182.451 152.566 183.669 153.631C184.224 154.118 184.912 154.357 185.597 154.357C186.412 154.357 187.223 154.018 187.802 153.357L210.275 127.691C211.141 126.702 211.242 125.256 210.52 124.156ZM69.371 122.833L88.058 94.467L106.66 122.833H69.371ZM93.4879 92.0632H130.584L112.036 120.347L93.4879 92.0632ZM136.009 94.4755L154.605 122.833H117.413L136.009 94.4755ZM136.009 197.349L115.899 128.691H156.119L136.009 197.349ZM160.029 120.42L141.433 92.0632H178.626L160.029 120.42ZM165.454 122.833L184.05 94.4755L202.646 122.833H165.454Z" fill="white"/>
<path d="M107.051 156.806C99.4949 156.806 93.3469 150.658 93.3469 143.101C93.3469 141.484 92.0353 140.172 90.4175 140.172C88.7998 140.172 87.4881 141.484 87.4881 143.101C87.4881 150.658 81.3402 156.806 73.7836 156.806C72.1662 156.806 70.8542 158.117 70.8542 159.735C70.8542 161.353 72.1662 162.665 73.7836 162.665C81.3402 162.665 87.4881 168.812 87.4881 176.369C87.4881 177.987 88.8 179.298 90.4175 179.298C92.035 179.298 93.3469 177.987 93.3469 176.369C93.3469 168.812 99.4949 162.665 107.051 162.665C108.669 162.665 109.981 161.353 109.981 159.735C109.981 158.117 108.669 156.806 107.051 156.806ZM90.4175 166.081C88.8206 163.508 86.6444 161.332 84.0718 159.735C86.6444 158.138 88.8203 155.962 90.4175 153.389C92.0145 155.962 94.1907 158.138 96.7632 159.735C94.1907 161.332 92.0148 163.508 90.4175 166.081Z" fill="white"/>
<path d="M208.071 72.7255C203.225 72.7255 199.283 68.783 199.283 63.9373C199.283 62.3196 197.971 61.0079 196.353 61.0079C194.736 61.0079 193.424 62.3196 193.424 63.9373C193.424 68.783 189.481 72.7255 184.636 72.7255C183.018 72.7255 181.706 74.0371 181.706 75.6549C181.706 77.2727 183.018 78.5843 184.636 78.5843C189.481 78.5843 193.424 82.5268 193.424 87.3725C193.424 88.9903 194.736 90.3019 196.353 90.3019C197.971 90.3019 199.283 88.9903 199.283 87.3725C199.283 82.5268 203.225 78.5843 208.071 78.5843C209.688 78.5843 211 77.2727 211 75.6549C211 74.0371 209.688 72.7255 208.071 72.7255ZM196.353 78.5934C195.517 77.4807 194.527 76.4907 193.415 75.6549C194.527 74.8191 195.517 73.8291 196.353 72.7164C197.189 73.8291 198.179 74.8191 199.292 75.6549C198.179 76.4905 197.189 77.4807 196.353 78.5934Z" fill="white"/>
<path d="M179.003 159.253C178.458 158.705 177.702 158.395 176.932 158.395C176.161 158.395 175.409 158.705 174.861 159.253C174.316 159.798 174.003 160.554 174.003 161.324C174.003 162.094 174.316 162.85 174.861 163.395C175.406 163.94 176.161 164.254 176.932 164.254C177.703 164.254 178.458 163.94 179.003 163.395C179.548 162.85 179.862 162.094 179.862 161.324C179.862 160.554 179.548 159.798 179.003 159.253Z" fill="white"/>
</g>
<defs>
<clipPath id="clip0">
<rect width="150" height="150" fill="white" transform="translate(61 61)"/>
</clipPath>
</defs>
</svg>
