<svg width="500" height="373" viewBox="0 0 500 373" fill="none" xmlns="http://www.w3.org/2000/svg">
<path d="M0 327.45H500V327.7H0V327.45Z" fill="#EBEBEB"/>
<path d="M50.1 343.54H83.22V343.79H50.1V343.54Z" fill="#EBEBEB"/>
<path d="M168.78 346.26H177.47V346.51H168.78V346.26Z" fill="#EBEBEB"/>
<path d="M84.2199 334.26H103.41V334.51H84.2199V334.26Z" fill="#EBEBEB"/>
<path d="M404.35 335.94H447.54V336.19H404.35V335.94Z" fill="#EBEBEB"/>
<path d="M389.11 335.94H395.44V336.19H389.11V335.94Z" fill="#EBEBEB"/>
<path d="M274.85 340.16H368.53V340.41H274.85V340.16Z" fill="#EBEBEB"/>
<path d="M262.99 282.85H456.08C459.23 282.85 461.79 280.29 461.79 277.14V5.71C461.79 2.56 459.23 0 456.08 0H262.98C259.83 0 257.27 2.56 257.27 5.71V277.14C257.28 280.29 259.84 282.85 262.99 282.85ZM456.08 0.25C459.09 0.25 461.54 2.7 461.54 5.71V277.14C461.54 280.15 459.09 282.6 456.08 282.6H262.98C259.97 282.6 257.52 280.15 257.52 277.14V5.71C257.52 2.7 259.97 0.25 262.98 0.25H456.08Z" fill="#EBEBEB"/>
<path d="M46.69 282.85H239.79C242.94 282.85 245.5 280.29 245.5 277.14V5.71C245.5 2.56 242.94 0 239.79 0H46.69C43.54 0 40.98 2.56 40.98 5.71V277.14C40.98 280.29 43.54 282.85 46.69 282.85ZM239.79 0.25C242.8 0.25 245.25 2.7 245.25 5.71V277.14C245.25 280.15 242.8 282.6 239.79 282.6H46.69C43.68 282.6 41.23 280.15 41.23 277.14V5.71C41.23 2.7 43.68 0.25 46.69 0.25H239.79Z" fill="#EBEBEB"/>
<path d="M54.5798 62.23H296.86V295.77H54.5798V62.23Z" fill="#E0E0E0"/>
<path d="M54.58 66.47H292.97V291.69H54.58V66.47Z" fill="#F5F5F5"/>
<path d="M291.21 237.15V169.4H284.18V160.45L268.34 153.05V143.89H265.7V169.4H263.06V237.15H259.54V201.95H251.62V183.48H248.98V237.15H242.83V216.91H238.43V211.63H228.75V193.16H223.47V180.84H217.31V162.36H214.67V180.84H208.51V193.16H203.24V211.63H193.56V216.91H189.16V237.15H183.88V211.63H174.2V155.33H171.56V149.17H150.45V155.33H146.05V195.8H128.45V200.19H122.3V202.83H128.45V218.67H109.98V165.88H106.46V155.33H97.66V114.86H95.02V155.33H88.86V165.88H54.58V291.69H292.97V237.15H291.21Z" fill="#E6E6E6"/>
<path d="M72.8999 168.64H75.3899V171.13H72.8999V168.64Z" fill="#F0F0F0"/>
<path d="M72.8999 172.82H75.3899V175.31H72.8999V172.82Z" fill="#F0F0F0"/>
<path d="M72.8999 189.54H75.3899V192.03H72.8999V189.54Z" fill="#F0F0F0"/>
<path d="M72.8999 193.71H75.3899V196.2H72.8999V193.71Z" fill="#F0F0F0"/>
<path d="M72.8999 197.89H75.3899V200.38H72.8999V197.89Z" fill="#F0F0F0"/>
<path d="M72.8999 210.43H75.3899V212.92H72.8999V210.43Z" fill="#F0F0F0"/>
<path d="M72.8999 214.61H75.3899V217.1H72.8999V214.61Z" fill="#F0F0F0"/>
<path d="M76.8598 185.36H79.3499V187.85H76.8598V185.36Z" fill="#F0F0F0"/>
<path d="M76.8598 189.54H79.3499V192.03H76.8598V189.54Z" fill="#F0F0F0"/>
<path d="M76.8598 193.71H79.3499V196.2H76.8598V193.71Z" fill="#F0F0F0"/>
<path d="M76.8598 197.89H79.3499V200.38H76.8598V197.89Z" fill="#F0F0F0"/>
<path d="M76.8598 202.07H79.3499V204.56H76.8598V202.07Z" fill="#F0F0F0"/>
<path d="M76.8598 210.43H79.3499V212.92H76.8598V210.43Z" fill="#F0F0F0"/>
<path d="M76.8598 214.61H79.3499V217.1H76.8598V214.61Z" fill="#F0F0F0"/>
<path d="M80.8201 168.64H83.3101V171.13H80.8201V168.64Z" fill="#F0F0F0"/>
<path d="M80.8201 172.82H83.3101V175.31H80.8201V172.82Z" fill="#F0F0F0"/>
<path d="M80.8201 177H83.3101V179.49H80.8201V177Z" fill="#F0F0F0"/>
<path d="M80.8201 181.18H83.3101V183.67H80.8201V181.18Z" fill="#F0F0F0"/>
<path d="M80.8201 185.36H83.3101V187.85H80.8201V185.36Z" fill="#F0F0F0"/>
<path d="M80.8201 189.54H83.3101V192.03H80.8201V189.54Z" fill="#F0F0F0"/>
<path d="M80.8201 193.71H83.3101V196.2H80.8201V193.71Z" fill="#F0F0F0"/>
<path d="M80.8201 197.89H83.3101V200.38H80.8201V197.89Z" fill="#F0F0F0"/>
<path d="M80.8201 202.07H83.3101V204.56H80.8201V202.07Z" fill="#F0F0F0"/>
<path d="M80.8201 206.25H83.3101V208.74H80.8201V206.25Z" fill="#F0F0F0"/>
<path d="M80.8201 214.61H83.3101V217.1H80.8201V214.61Z" fill="#F0F0F0"/>
<path d="M84.78 168.64H87.27V171.13H84.78V168.64Z" fill="#F0F0F0"/>
<path d="M84.78 172.82H87.27V175.31H84.78V172.82Z" fill="#F0F0F0"/>
<path d="M84.78 177H87.27V179.49H84.78V177Z" fill="#F0F0F0"/>
<path d="M84.78 181.18H87.27V183.67H84.78V181.18Z" fill="#F0F0F0"/>
<path d="M84.78 185.36H87.27V187.85H84.78V185.36Z" fill="#F0F0F0"/>
<path d="M84.78 189.54H87.27V192.03H84.78V189.54Z" fill="#F0F0F0"/>
<path d="M84.78 193.71H87.27V196.2H84.78V193.71Z" fill="#F0F0F0"/>
<path d="M84.78 231.33H87.27V233.82H84.78V231.33Z" fill="#F0F0F0"/>
<path d="M88.74 168.64H91.23V171.13H88.74V168.64Z" fill="#F0F0F0"/>
<path d="M88.74 172.82H91.23V175.31H88.74V172.82Z" fill="#F0F0F0"/>
<path d="M88.74 177H91.23V179.49H88.74V177Z" fill="#F0F0F0"/>
<path d="M88.74 181.18H91.23V183.67H88.74V181.18Z" fill="#F0F0F0"/>
<path d="M88.74 185.36H91.23V187.85H88.74V185.36Z" fill="#F0F0F0"/>
<path d="M88.74 189.54H91.23V192.03H88.74V189.54Z" fill="#F0F0F0"/>
<path d="M88.74 193.71H91.23V196.2H88.74V193.71Z" fill="#F0F0F0"/>
<path d="M88.74 197.89H91.23V200.38H88.74V197.89Z" fill="#F0F0F0"/>
<path d="M88.74 222.97H91.23V225.46H88.74V222.97Z" fill="#F0F0F0"/>
<path d="M88.74 227.15H91.23V229.64H88.74V227.15Z" fill="#F0F0F0"/>
<path d="M88.74 231.33H91.23V233.82H88.74V231.33Z" fill="#F0F0F0"/>
<path d="M88.74 235.5H91.23V237.99H88.74V235.5Z" fill="#F0F0F0"/>
<path d="M88.74 252.22H91.23V254.71H88.74V252.22Z" fill="#F0F0F0"/>
<path d="M92.7 168.64H95.1899V171.13H92.7V168.64Z" fill="#F0F0F0"/>
<path d="M92.7 172.82H95.1899V175.31H92.7V172.82Z" fill="#F0F0F0"/>
<path d="M92.7 177H95.1899V179.49H92.7V177Z" fill="#F0F0F0"/>
<path d="M92.7 181.18H95.1899V183.67H92.7V181.18Z" fill="#F0F0F0"/>
<path d="M92.7 185.36H95.1899V187.85H92.7V185.36Z" fill="#F0F0F0"/>
<path d="M92.7 189.54H95.1899V192.03H92.7V189.54Z" fill="#F0F0F0"/>
<path d="M92.7 193.71H95.1899V196.2H92.7V193.71Z" fill="#F0F0F0"/>
<path d="M92.7 197.89H95.1899V200.38H92.7V197.89Z" fill="#F0F0F0"/>
<path d="M92.7 202.07H95.1899V204.56H92.7V202.07Z" fill="#F0F0F0"/>
<path d="M92.7 206.25H95.1899V208.74H92.7V206.25Z" fill="#F0F0F0"/>
<path d="M92.7 218.79H95.1899V221.28H92.7V218.79Z" fill="#F0F0F0"/>
<path d="M92.7 222.97H95.1899V225.46H92.7V222.97Z" fill="#F0F0F0"/>
<path d="M92.7 227.15H95.1899V229.64H92.7V227.15Z" fill="#F0F0F0"/>
<path d="M92.7 231.33H95.1899V233.82H92.7V231.33Z" fill="#F0F0F0"/>
<path d="M92.7 235.5H95.1899V237.99H92.7V235.5Z" fill="#F0F0F0"/>
<path d="M92.7 252.22H95.1899V254.71H92.7V252.22Z" fill="#F0F0F0"/>
<path d="M96.6599 168.64H99.1499V171.13H96.6599V168.64Z" fill="#F0F0F0"/>
<path d="M96.6599 172.82H99.1499V175.31H96.6599V172.82Z" fill="#F0F0F0"/>
<path d="M96.6599 177H99.1499V179.49H96.6599V177Z" fill="#F0F0F0"/>
<path d="M96.6599 181.18H99.1499V183.67H96.6599V181.18Z" fill="#F0F0F0"/>
<path d="M96.6599 185.36H99.1499V187.85H96.6599V185.36Z" fill="#F0F0F0"/>
<path d="M96.6599 189.54H99.1499V192.03H96.6599V189.54Z" fill="#F0F0F0"/>
<path d="M96.6599 193.71H99.1499V196.2H96.6599V193.71Z" fill="#F0F0F0"/>
<path d="M96.6599 197.89H99.1499V200.38H96.6599V197.89Z" fill="#F0F0F0"/>
<path d="M96.6599 202.07H99.1499V204.56H96.6599V202.07Z" fill="#F0F0F0"/>
<path d="M96.6599 206.25H99.1499V208.74H96.6599V206.25Z" fill="#F0F0F0"/>
<path d="M96.6599 210.43H99.1499V212.92H96.6599V210.43Z" fill="#F0F0F0"/>
<path d="M96.6599 214.61H99.1499V217.1H96.6599V214.61Z" fill="#F0F0F0"/>
<path d="M96.6599 218.79H99.1499V221.28H96.6599V218.79Z" fill="#F0F0F0"/>
<path d="M96.6599 222.97H99.1499V225.46H96.6599V222.97Z" fill="#F0F0F0"/>
<path d="M96.6599 227.15H99.1499V229.64H96.6599V227.15Z" fill="#F0F0F0"/>
<path d="M96.6599 231.33H99.1499V233.82H96.6599V231.33Z" fill="#F0F0F0"/>
<path d="M96.6599 235.5H99.1499V237.99H96.6599V235.5Z" fill="#F0F0F0"/>
<path d="M96.6599 239.68H99.1499V242.17H96.6599V239.68Z" fill="#F0F0F0"/>
<path d="M100.62 168.64H103.11V171.13H100.62V168.64Z" fill="#F0F0F0"/>
<path d="M100.62 172.82H103.11V175.31H100.62V172.82Z" fill="#F0F0F0"/>
<path d="M100.62 177H103.11V179.49H100.62V177Z" fill="#F0F0F0"/>
<path d="M100.62 181.18H103.11V183.67H100.62V181.18Z" fill="#F0F0F0"/>
<path d="M100.62 185.36H103.11V187.85H100.62V185.36Z" fill="#F0F0F0"/>
<path d="M100.62 189.54H103.11V192.03H100.62V189.54Z" fill="#F0F0F0"/>
<path d="M100.62 193.71H103.11V196.2H100.62V193.71Z" fill="#F0F0F0"/>
<path d="M100.62 197.89H103.11V200.38H100.62V197.89Z" fill="#F0F0F0"/>
<path d="M100.62 202.07H103.11V204.56H100.62V202.07Z" fill="#F0F0F0"/>
<path d="M100.62 206.25H103.11V208.74H100.62V206.25Z" fill="#F0F0F0"/>
<path d="M100.62 218.79H103.11V221.28H100.62V218.79Z" fill="#F0F0F0"/>
<path d="M100.62 222.97H103.11V225.46H100.62V222.97Z" fill="#F0F0F0"/>
<path d="M100.62 227.15H103.11V229.64H100.62V227.15Z" fill="#F0F0F0"/>
<path d="M100.62 231.33H103.11V233.82H100.62V231.33Z" fill="#F0F0F0"/>
<path d="M104.57 168.64H107.06V171.13H104.57V168.64Z" fill="#F0F0F0"/>
<path d="M104.57 172.82H107.06V175.31H104.57V172.82Z" fill="#F0F0F0"/>
<path d="M104.57 177H107.06V179.49H104.57V177Z" fill="#F0F0F0"/>
<path d="M104.57 181.18H107.06V183.67H104.57V181.18Z" fill="#F0F0F0"/>
<path d="M104.57 185.36H107.06V187.85H104.57V185.36Z" fill="#F0F0F0"/>
<path d="M104.57 189.54H107.06V192.03H104.57V189.54Z" fill="#F0F0F0"/>
<path d="M104.57 193.71H107.06V196.2H104.57V193.71Z" fill="#F0F0F0"/>
<path d="M104.57 197.89H107.06V200.38H104.57V197.89Z" fill="#F0F0F0"/>
<path d="M104.57 202.07H107.06V204.56H104.57V202.07Z" fill="#F0F0F0"/>
<path d="M104.57 206.25H107.06V208.74H104.57V206.25Z" fill="#F0F0F0"/>
<path d="M104.57 218.79H107.06V221.28H104.57V218.79Z" fill="#F0F0F0"/>
<path d="M104.57 222.97H107.06V225.46H104.57V222.97Z" fill="#F0F0F0"/>
<path d="M104.57 227.15H107.06V229.64H104.57V227.15Z" fill="#F0F0F0"/>
<path d="M149.15 157.79H151.64V160.28H149.15V157.79Z" fill="#F0F0F0"/>
<path d="M149.15 161.97H151.64V164.46H149.15V161.97Z" fill="#F0F0F0"/>
<path d="M149.15 166.15H151.64V168.64H149.15V166.15Z" fill="#F0F0F0"/>
<path d="M149.15 170.33H151.64V172.82H149.15V170.33Z" fill="#F0F0F0"/>
<path d="M149.15 174.51H151.64V177H149.15V174.51Z" fill="#F0F0F0"/>
<path d="M149.15 178.69H151.64V181.18H149.15V178.69Z" fill="#F0F0F0"/>
<path d="M149.15 182.86H151.64V185.35H149.15V182.86Z" fill="#F0F0F0"/>
<path d="M149.15 187.04H151.64V189.53H149.15V187.04Z" fill="#F0F0F0"/>
<path d="M149.15 199.58H151.64V202.07H149.15V199.58Z" fill="#F0F0F0"/>
<path d="M149.15 203.76H151.64V206.25H149.15V203.76Z" fill="#F0F0F0"/>
<path d="M153.11 157.79H155.6V160.28H153.11V157.79Z" fill="#F0F0F0"/>
<path d="M153.11 161.97H155.6V164.46H153.11V161.97Z" fill="#F0F0F0"/>
<path d="M153.11 166.15H155.6V168.64H153.11V166.15Z" fill="#F0F0F0"/>
<path d="M153.11 170.33H155.6V172.82H153.11V170.33Z" fill="#F0F0F0"/>
<path d="M153.11 174.51H155.6V177H153.11V174.51Z" fill="#F0F0F0"/>
<path d="M153.11 178.69H155.6V181.18H153.11V178.69Z" fill="#F0F0F0"/>
<path d="M153.11 182.86H155.6V185.35H153.11V182.86Z" fill="#F0F0F0"/>
<path d="M153.11 187.04H155.6V189.53H153.11V187.04Z" fill="#F0F0F0"/>
<path d="M153.11 203.76H155.6V206.25H153.11V203.76Z" fill="#F0F0F0"/>
<path d="M157.07 157.79H159.56V160.28H157.07V157.79Z" fill="#F0F0F0"/>
<path d="M157.07 161.97H159.56V164.46H157.07V161.97Z" fill="#F0F0F0"/>
<path d="M157.07 166.15H159.56V168.64H157.07V166.15Z" fill="#F0F0F0"/>
<path d="M157.07 170.33H159.56V172.82H157.07V170.33Z" fill="#F0F0F0"/>
<path d="M157.07 174.51H159.56V177H157.07V174.51Z" fill="#F0F0F0"/>
<path d="M157.07 178.69H159.56V181.18H157.07V178.69Z" fill="#F0F0F0"/>
<path d="M157.07 182.86H159.56V185.35H157.07V182.86Z" fill="#F0F0F0"/>
<path d="M157.07 187.04H159.56V189.53H157.07V187.04Z" fill="#F0F0F0"/>
<path d="M161.03 157.79H163.52V160.28H161.03V157.79Z" fill="#F0F0F0"/>
<path d="M161.03 161.97H163.52V164.46H161.03V161.97Z" fill="#F0F0F0"/>
<path d="M161.03 166.15H163.52V168.64H161.03V166.15Z" fill="#F0F0F0"/>
<path d="M161.03 170.33H163.52V172.82H161.03V170.33Z" fill="#F0F0F0"/>
<path d="M161.03 174.51H163.52V177H161.03V174.51Z" fill="#F0F0F0"/>
<path d="M161.03 178.69H163.52V181.18H161.03V178.69Z" fill="#F0F0F0"/>
<path d="M161.03 187.04H163.52V189.53H161.03V187.04Z" fill="#F0F0F0"/>
<path d="M161.03 191.22H163.52V193.71H161.03V191.22Z" fill="#F0F0F0"/>
<path d="M161.03 203.76H163.52V206.25H161.03V203.76Z" fill="#F0F0F0"/>
<path d="M161.03 207.94H163.52V210.43H161.03V207.94Z" fill="#F0F0F0"/>
<path d="M161.03 212.12H163.52V214.61H161.03V212.12Z" fill="#F0F0F0"/>
<path d="M161.03 216.3H163.52V218.79H161.03V216.3Z" fill="#F0F0F0"/>
<path d="M161.03 220.48H163.52V222.97H161.03V220.48Z" fill="#F0F0F0"/>
<path d="M161.03 224.65H163.52V227.14H161.03V224.65Z" fill="#F0F0F0"/>
<path d="M161.03 228.83H163.52V231.32H161.03V228.83Z" fill="#F0F0F0"/>
<path d="M164.99 157.79H167.48V160.28H164.99V157.79Z" fill="#F0F0F0"/>
<path d="M164.99 161.97H167.48V164.46H164.99V161.97Z" fill="#F0F0F0"/>
<path d="M164.99 166.15H167.48V168.64H164.99V166.15Z" fill="#F0F0F0"/>
<path d="M164.99 170.33H167.48V172.82H164.99V170.33Z" fill="#F0F0F0"/>
<path d="M164.99 174.51H167.48V177H164.99V174.51Z" fill="#F0F0F0"/>
<path d="M164.99 178.69H167.48V181.18H164.99V178.69Z" fill="#F0F0F0"/>
<path d="M164.99 191.22H167.48V193.71H164.99V191.22Z" fill="#F0F0F0"/>
<path d="M164.99 195.4H167.48V197.89H164.99V195.4Z" fill="#F0F0F0"/>
<path d="M164.99 199.58H167.48V202.07H164.99V199.58Z" fill="#F0F0F0"/>
<path d="M164.99 203.76H167.48V206.25H164.99V203.76Z" fill="#F0F0F0"/>
<path d="M164.99 207.94H167.48V210.43H164.99V207.94Z" fill="#F0F0F0"/>
<path d="M164.99 212.12H167.48V214.61H164.99V212.12Z" fill="#F0F0F0"/>
<path d="M164.99 216.3H167.48V218.79H164.99V216.3Z" fill="#F0F0F0"/>
<path d="M164.99 220.48H167.48V222.97H164.99V220.48Z" fill="#F0F0F0"/>
<path d="M164.99 224.65H167.48V227.14H164.99V224.65Z" fill="#F0F0F0"/>
<path d="M164.99 228.83H167.48V231.32H164.99V228.83Z" fill="#F0F0F0"/>
<path d="M164.99 233.01H167.48V235.5H164.99V233.01Z" fill="#F0F0F0"/>
<path d="M164.99 241.37H167.48V243.86H164.99V241.37Z" fill="#F0F0F0"/>
<path d="M168.95 157.79H171.44V160.28H168.95V157.79Z" fill="#F0F0F0"/>
<path d="M168.95 161.97H171.44V164.46H168.95V161.97Z" fill="#F0F0F0"/>
<path d="M168.95 166.15H171.44V168.64H168.95V166.15Z" fill="#F0F0F0"/>
<path d="M168.95 170.33H171.44V172.82H168.95V170.33Z" fill="#F0F0F0"/>
<path d="M168.95 174.51H171.44V177H168.95V174.51Z" fill="#F0F0F0"/>
<path d="M168.95 178.69H171.44V181.18H168.95V178.69Z" fill="#F0F0F0"/>
<path d="M168.95 191.22H171.44V193.71H168.95V191.22Z" fill="#F0F0F0"/>
<path d="M168.95 195.4H171.44V197.89H168.95V195.4Z" fill="#F0F0F0"/>
<path d="M168.95 199.58H171.44V202.07H168.95V199.58Z" fill="#F0F0F0"/>
<path d="M168.95 203.76H171.44V206.25H168.95V203.76Z" fill="#F0F0F0"/>
<path d="M168.95 216.3H171.44V218.79H168.95V216.3Z" fill="#F0F0F0"/>
<path d="M168.95 220.48H171.44V222.97H168.95V220.48Z" fill="#F0F0F0"/>
<path d="M168.95 224.65H171.44V227.14H168.95V224.65Z" fill="#F0F0F0"/>
<path d="M168.95 228.83H171.44V231.32H168.95V228.83Z" fill="#F0F0F0"/>
<path d="M168.95 233.01H171.44V235.5H168.95V233.01Z" fill="#F0F0F0"/>
<path d="M168.95 241.37H171.44V243.86H168.95V241.37Z" fill="#F0F0F0"/>
<path d="M168.95 245.55H171.44V248.04H168.95V245.55Z" fill="#F0F0F0"/>
<path d="M204.87 196.65H207.36V199.14H204.87V196.65Z" fill="#F0F0F0"/>
<path d="M204.87 200.83H207.36V203.32H204.87V200.83Z" fill="#F0F0F0"/>
<path d="M204.87 205.01H207.36V207.5H204.87V205.01Z" fill="#F0F0F0"/>
<path d="M204.87 209.18H207.36V211.67H204.87V209.18Z" fill="#F0F0F0"/>
<path d="M204.87 213.36H207.36V215.85H204.87V213.36Z" fill="#F0F0F0"/>
<path d="M204.87 217.54H207.36V220.03H204.87V217.54Z" fill="#F0F0F0"/>
<path d="M204.87 221.72H207.36V224.21H204.87V221.72Z" fill="#F0F0F0"/>
<path d="M204.87 234.26H207.36V236.75H204.87V234.26Z" fill="#F0F0F0"/>
<path d="M204.87 238.44H207.36V240.93H204.87V238.44Z" fill="#F0F0F0"/>
<path d="M204.87 242.62H207.36V245.11H204.87V242.62Z" fill="#F0F0F0"/>
<path d="M208.83 196.65H211.32V199.14H208.83V196.65Z" fill="#F0F0F0"/>
<path d="M208.83 200.83H211.32V203.32H208.83V200.83Z" fill="#F0F0F0"/>
<path d="M208.83 205.01H211.32V207.5H208.83V205.01Z" fill="#F0F0F0"/>
<path d="M208.83 209.18H211.32V211.67H208.83V209.18Z" fill="#F0F0F0"/>
<path d="M208.83 213.36H211.32V215.85H208.83V213.36Z" fill="#F0F0F0"/>
<path d="M208.83 217.54H211.32V220.03H208.83V217.54Z" fill="#F0F0F0"/>
<path d="M208.83 221.72H211.32V224.21H208.83V221.72Z" fill="#F0F0F0"/>
<path d="M212.79 196.65H215.28V199.14H212.79V196.65Z" fill="#F0F0F0"/>
<path d="M212.79 200.83H215.28V203.32H212.79V200.83Z" fill="#F0F0F0"/>
<path d="M212.79 205.01H215.28V207.5H212.79V205.01Z" fill="#F0F0F0"/>
<path d="M212.79 209.18H215.28V211.67H212.79V209.18Z" fill="#F0F0F0"/>
<path d="M212.79 213.36H215.28V215.85H212.79V213.36Z" fill="#F0F0F0"/>
<path d="M212.79 217.54H215.28V220.03H212.79V217.54Z" fill="#F0F0F0"/>
<path d="M212.79 221.72H215.28V224.21H212.79V221.72Z" fill="#F0F0F0"/>
<path d="M216.75 196.65H219.24V199.14H216.75V196.65Z" fill="#F0F0F0"/>
<path d="M216.75 200.83H219.24V203.32H216.75V200.83Z" fill="#F0F0F0"/>
<path d="M216.75 205.01H219.24V207.5H216.75V205.01Z" fill="#F0F0F0"/>
<path d="M216.75 209.18H219.24V211.67H216.75V209.18Z" fill="#F0F0F0"/>
<path d="M216.75 213.36H219.24V215.85H216.75V213.36Z" fill="#F0F0F0"/>
<path d="M216.75 217.54H219.24V220.03H216.75V217.54Z" fill="#F0F0F0"/>
<path d="M216.75 221.72H219.24V224.21H216.75V221.72Z" fill="#F0F0F0"/>
<path d="M216.75 225.9H219.24V228.39H216.75V225.9Z" fill="#F0F0F0"/>
<path d="M216.75 230.08H219.24V232.57H216.75V230.08Z" fill="#F0F0F0"/>
<path d="M216.75 234.26H219.24V236.75H216.75V234.26Z" fill="#F0F0F0"/>
<path d="M216.75 238.44H219.24V240.93H216.75V238.44Z" fill="#F0F0F0"/>
<path d="M220.71 196.65H223.2V199.14H220.71V196.65Z" fill="#F0F0F0"/>
<path d="M220.71 200.83H223.2V203.32H220.71V200.83Z" fill="#F0F0F0"/>
<path d="M220.71 205.01H223.2V207.5H220.71V205.01Z" fill="#F0F0F0"/>
<path d="M220.71 209.18H223.2V211.67H220.71V209.18Z" fill="#F0F0F0"/>
<path d="M220.71 213.36H223.2V215.85H220.71V213.36Z" fill="#F0F0F0"/>
<path d="M220.71 217.54H223.2V220.03H220.71V217.54Z" fill="#F0F0F0"/>
<path d="M220.71 221.72H223.2V224.21H220.71V221.72Z" fill="#F0F0F0"/>
<path d="M220.71 225.9H223.2V228.39H220.71V225.9Z" fill="#F0F0F0"/>
<path d="M220.71 230.08H223.2V232.57H220.71V230.08Z" fill="#F0F0F0"/>
<path d="M220.71 234.26H223.2V236.75H220.71V234.26Z" fill="#F0F0F0"/>
<path d="M220.71 238.44H223.2V240.93H220.71V238.44Z" fill="#F0F0F0"/>
<path d="M220.71 242.62H223.2V245.11H220.71V242.62Z" fill="#F0F0F0"/>
<path d="M220.71 255.15H223.2V257.64H220.71V255.15Z" fill="#F0F0F0"/>
<path d="M220.71 259.33H223.2V261.82H220.71V259.33Z" fill="#F0F0F0"/>
<path d="M224.67 196.65H227.16V199.14H224.67V196.65Z" fill="#F0F0F0"/>
<path d="M224.67 200.83H227.16V203.32H224.67V200.83Z" fill="#F0F0F0"/>
<path d="M224.67 205.01H227.16V207.5H224.67V205.01Z" fill="#F0F0F0"/>
<path d="M224.67 217.54H227.16V220.03H224.67V217.54Z" fill="#F0F0F0"/>
<path d="M224.67 221.72H227.16V224.21H224.67V221.72Z" fill="#F0F0F0"/>
<path d="M224.67 225.9H227.16V228.39H224.67V225.9Z" fill="#F0F0F0"/>
<path d="M224.67 230.08H227.16V232.57H224.67V230.08Z" fill="#F0F0F0"/>
<path d="M224.67 234.26H227.16V236.75H224.67V234.26Z" fill="#F0F0F0"/>
<path d="M224.67 238.44H227.16V240.93H224.67V238.44Z" fill="#F0F0F0"/>
<path d="M224.67 242.62H227.16V245.11H224.67V242.62Z" fill="#F0F0F0"/>
<path d="M224.67 255.15H227.16V257.64H224.67V255.15Z" fill="#F0F0F0"/>
<path d="M224.67 259.33H227.16V261.82H224.67V259.33Z" fill="#F0F0F0"/>
<path d="M224.67 263.51H227.16V266H224.67V263.51Z" fill="#F0F0F0"/>
<path d="M266.16 171.57H268.65V174.06H266.16V171.57Z" fill="#F0F0F0"/>
<path d="M266.16 175.75H268.65V178.24H266.16V175.75Z" fill="#F0F0F0"/>
<path d="M266.16 179.93H268.65V182.42H266.16V179.93Z" fill="#F0F0F0"/>
<path d="M266.16 184.11H268.65V186.6H266.16V184.11Z" fill="#F0F0F0"/>
<path d="M266.16 188.29H268.65V190.78H266.16V188.29Z" fill="#F0F0F0"/>
<path d="M266.16 192.47H268.65V194.96H266.16V192.47Z" fill="#F0F0F0"/>
<path d="M266.16 196.65H268.65V199.14H266.16V196.65Z" fill="#F0F0F0"/>
<path d="M266.16 200.83H268.65V203.32H266.16V200.83Z" fill="#F0F0F0"/>
<path d="M266.16 205.01H268.65V207.5H266.16V205.01Z" fill="#F0F0F0"/>
<path d="M266.16 209.18H268.65V211.67H266.16V209.18Z" fill="#F0F0F0"/>
<path d="M266.16 213.36H268.65V215.85H266.16V213.36Z" fill="#F0F0F0"/>
<path d="M266.16 217.54H268.65V220.03H266.16V217.54Z" fill="#F0F0F0"/>
<path d="M266.16 221.72H268.65V224.21H266.16V221.72Z" fill="#F0F0F0"/>
<path d="M266.16 225.9H268.65V228.39H266.16V225.9Z" fill="#F0F0F0"/>
<path d="M266.16 230.08H268.65V232.57H266.16V230.08Z" fill="#F0F0F0"/>
<path d="M266.16 234.26H268.65V236.75H266.16V234.26Z" fill="#F0F0F0"/>
<path d="M266.16 238.44H268.65V240.93H266.16V238.44Z" fill="#F0F0F0"/>
<path d="M266.16 242.62H268.65V245.11H266.16V242.62Z" fill="#F0F0F0"/>
<path d="M266.16 246.8H268.65V249.29H266.16V246.8Z" fill="#F0F0F0"/>
<path d="M266.16 250.97H268.65V253.46H266.16V250.97Z" fill="#F0F0F0"/>
<path d="M266.16 255.15H268.65V257.64H266.16V255.15Z" fill="#F0F0F0"/>
<path d="M266.16 259.33H268.65V261.82H266.16V259.33Z" fill="#F0F0F0"/>
<path d="M266.16 263.51H268.65V266H266.16V263.51Z" fill="#F0F0F0"/>
<path d="M270.12 171.57H272.61V174.06H270.12V171.57Z" fill="#F0F0F0"/>
<path d="M270.12 175.75H272.61V178.24H270.12V175.75Z" fill="#F0F0F0"/>
<path d="M270.12 179.93H272.61V182.42H270.12V179.93Z" fill="#F0F0F0"/>
<path d="M270.12 184.11H272.61V186.6H270.12V184.11Z" fill="#F0F0F0"/>
<path d="M270.12 188.29H272.61V190.78H270.12V188.29Z" fill="#F0F0F0"/>
<path d="M270.12 192.47H272.61V194.96H270.12V192.47Z" fill="#F0F0F0"/>
<path d="M270.12 196.65H272.61V199.14H270.12V196.65Z" fill="#F0F0F0"/>
<path d="M270.12 200.83H272.61V203.32H270.12V200.83Z" fill="#F0F0F0"/>
<path d="M270.12 205.01H272.61V207.5H270.12V205.01Z" fill="#F0F0F0"/>
<path d="M270.12 209.18H272.61V211.67H270.12V209.18Z" fill="#F0F0F0"/>
<path d="M270.12 213.36H272.61V215.85H270.12V213.36Z" fill="#F0F0F0"/>
<path d="M270.12 217.54H272.61V220.03H270.12V217.54Z" fill="#F0F0F0"/>
<path d="M270.12 221.72H272.61V224.21H270.12V221.72Z" fill="#F0F0F0"/>
<path d="M270.12 225.9H272.61V228.39H270.12V225.9Z" fill="#F0F0F0"/>
<path d="M270.12 230.08H272.61V232.57H270.12V230.08Z" fill="#F0F0F0"/>
<path d="M270.12 234.26H272.61V236.75H270.12V234.26Z" fill="#F0F0F0"/>
<path d="M270.12 238.44H272.61V240.93H270.12V238.44Z" fill="#F0F0F0"/>
<path d="M270.12 242.62H272.61V245.11H270.12V242.62Z" fill="#F0F0F0"/>
<path d="M270.12 246.8H272.61V249.29H270.12V246.8Z" fill="#F0F0F0"/>
<path d="M274.08 171.57H276.57V174.06H274.08V171.57Z" fill="#F0F0F0"/>
<path d="M274.08 175.75H276.57V178.24H274.08V175.75Z" fill="#F0F0F0"/>
<path d="M274.08 179.93H276.57V182.42H274.08V179.93Z" fill="#F0F0F0"/>
<path d="M274.08 184.11H276.57V186.6H274.08V184.11Z" fill="#F0F0F0"/>
<path d="M274.08 188.29H276.57V190.78H274.08V188.29Z" fill="#F0F0F0"/>
<path d="M274.08 192.47H276.57V194.96H274.08V192.47Z" fill="#F0F0F0"/>
<path d="M274.08 196.65H276.57V199.14H274.08V196.65Z" fill="#F0F0F0"/>
<path d="M274.08 200.83H276.57V203.32H274.08V200.83Z" fill="#F0F0F0"/>
<path d="M274.08 205.01H276.57V207.5H274.08V205.01Z" fill="#F0F0F0"/>
<path d="M274.08 209.18H276.57V211.67H274.08V209.18Z" fill="#F0F0F0"/>
<path d="M274.08 213.36H276.57V215.85H274.08V213.36Z" fill="#F0F0F0"/>
<path d="M274.08 217.54H276.57V220.03H274.08V217.54Z" fill="#F0F0F0"/>
<path d="M274.08 221.72H276.57V224.21H274.08V221.72Z" fill="#F0F0F0"/>
<path d="M274.08 225.9H276.57V228.39H274.08V225.9Z" fill="#F0F0F0"/>
<path d="M274.08 230.08H276.57V232.57H274.08V230.08Z" fill="#F0F0F0"/>
<path d="M274.08 234.26H276.57V236.75H274.08V234.26Z" fill="#F0F0F0"/>
<path d="M274.08 238.44H276.57V240.93H274.08V238.44Z" fill="#F0F0F0"/>
<path d="M274.08 242.62H276.57V245.11H274.08V242.62Z" fill="#F0F0F0"/>
<path d="M274.08 246.8H276.57V249.29H274.08V246.8Z" fill="#F0F0F0"/>
<path d="M278.04 171.57H280.53V174.06H278.04V171.57Z" fill="#F0F0F0"/>
<path d="M278.04 175.75H280.53V178.24H278.04V175.75Z" fill="#F0F0F0"/>
<path d="M278.04 179.93H280.53V182.42H278.04V179.93Z" fill="#F0F0F0"/>
<path d="M278.04 184.11H280.53V186.6H278.04V184.11Z" fill="#F0F0F0"/>
<path d="M278.04 188.29H280.53V190.78H278.04V188.29Z" fill="#F0F0F0"/>
<path d="M278.04 192.47H280.53V194.96H278.04V192.47Z" fill="#F0F0F0"/>
<path d="M278.04 196.65H280.53V199.14H278.04V196.65Z" fill="#F0F0F0"/>
<path d="M278.04 200.83H280.53V203.32H278.04V200.83Z" fill="#F0F0F0"/>
<path d="M278.04 205.01H280.53V207.5H278.04V205.01Z" fill="#F0F0F0"/>
<path d="M278.04 209.18H280.53V211.67H278.04V209.18Z" fill="#F0F0F0"/>
<path d="M278.04 213.36H280.53V215.85H278.04V213.36Z" fill="#F0F0F0"/>
<path d="M278.04 217.54H280.53V220.03H278.04V217.54Z" fill="#F0F0F0"/>
<path d="M278.04 221.72H280.53V224.21H278.04V221.72Z" fill="#F0F0F0"/>
<path d="M278.04 225.9H280.53V228.39H278.04V225.9Z" fill="#F0F0F0"/>
<path d="M278.04 230.08H280.53V232.57H278.04V230.08Z" fill="#F0F0F0"/>
<path d="M282 171.57H284.49V174.06H282V171.57Z" fill="#F0F0F0"/>
<path d="M282 175.75H284.49V178.24H282V175.75Z" fill="#F0F0F0"/>
<path d="M282 179.93H284.49V182.42H282V179.93Z" fill="#F0F0F0"/>
<path d="M282 184.11H284.49V186.6H282V184.11Z" fill="#F0F0F0"/>
<path d="M282 188.29H284.49V190.78H282V188.29Z" fill="#F0F0F0"/>
<path d="M282 192.47H284.49V194.96H282V192.47Z" fill="#F0F0F0"/>
<path d="M282 196.65H284.49V199.14H282V196.65Z" fill="#F0F0F0"/>
<path d="M282 200.83H284.49V203.32H282V200.83Z" fill="#F0F0F0"/>
<path d="M282 205.01H284.49V207.5H282V205.01Z" fill="#F0F0F0"/>
<path d="M282 209.18H284.49V211.67H282V209.18Z" fill="#F0F0F0"/>
<path d="M282 213.36H284.49V215.85H282V213.36Z" fill="#F0F0F0"/>
<path d="M282 217.54H284.49V220.03H282V217.54Z" fill="#F0F0F0"/>
<path d="M282 221.72H284.49V224.21H282V221.72Z" fill="#F0F0F0"/>
<path d="M285.96 171.57H288.45V174.06H285.96V171.57Z" fill="#F0F0F0"/>
<path d="M285.96 175.75H288.45V178.24H285.96V175.75Z" fill="#F0F0F0"/>
<path d="M285.96 179.93H288.45V182.42H285.96V179.93Z" fill="#F0F0F0"/>
<path d="M285.96 184.11H288.45V186.6H285.96V184.11Z" fill="#F0F0F0"/>
<path d="M285.96 188.29H288.45V190.78H285.96V188.29Z" fill="#F0F0F0"/>
<path d="M285.96 192.47H288.45V194.96H285.96V192.47Z" fill="#F0F0F0"/>
<path d="M285.96 196.65H288.45V199.14H285.96V196.65Z" fill="#F0F0F0"/>
<path d="M285.96 200.83H288.45V203.32H285.96V200.83Z" fill="#F0F0F0"/>
<path d="M285.96 205.01H288.45V207.5H285.96V205.01Z" fill="#F0F0F0"/>
<path d="M285.96 209.18H288.45V211.67H285.96V209.18Z" fill="#F0F0F0"/>
<path d="M285.96 213.36H288.45V215.85H285.96V213.36Z" fill="#F0F0F0"/>
<path d="M285.96 217.54H288.45V220.03H285.96V217.54Z" fill="#F0F0F0"/>
<path d="M54.8699 170.33H57.3599V172.82H54.8699V170.33Z" fill="#F0F0F0"/>
<path d="M54.8699 174.51H57.3599V177H54.8699V174.51Z" fill="#F0F0F0"/>
<path d="M54.8699 178.69H57.3599V181.18H54.8699V178.69Z" fill="#F0F0F0"/>
<path d="M54.8699 182.86H57.3599V185.35H54.8699V182.86Z" fill="#F0F0F0"/>
<path d="M54.8699 187.04H57.3599V189.53H54.8699V187.04Z" fill="#F0F0F0"/>
<path d="M54.8699 191.22H57.3599V193.71H54.8699V191.22Z" fill="#F0F0F0"/>
<path d="M54.8699 195.4H57.3599V197.89H54.8699V195.4Z" fill="#F0F0F0"/>
<path d="M54.8699 199.58H57.3599V202.07H54.8699V199.58Z" fill="#F0F0F0"/>
<path d="M54.8699 203.76H57.3599V206.25H54.8699V203.76Z" fill="#F0F0F0"/>
<path d="M54.8699 207.94H57.3599V210.43H54.8699V207.94Z" fill="#F0F0F0"/>
<path d="M54.8699 212.12H57.3599V214.61H54.8699V212.12Z" fill="#F0F0F0"/>
<path d="M54.8699 216.3H57.3599V218.79H54.8699V216.3Z" fill="#F0F0F0"/>
<path d="M54.8699 220.48H57.3599V222.97H54.8699V220.48Z" fill="#F0F0F0"/>
<path d="M54.8699 224.65H57.3599V227.14H54.8699V224.65Z" fill="#F0F0F0"/>
<path d="M54.8699 228.83H57.3599V231.32H54.8699V228.83Z" fill="#F0F0F0"/>
<path d="M54.8699 233.01H57.3599V235.5H54.8699V233.01Z" fill="#F0F0F0"/>
<path d="M54.8699 237.19H57.3599V239.68H54.8699V237.19Z" fill="#F0F0F0"/>
<path d="M54.8699 245.55H57.3599V248.04H54.8699V245.55Z" fill="#F0F0F0"/>
<path d="M54.8699 249.73H57.3599V252.22H54.8699V249.73Z" fill="#F0F0F0"/>
<path d="M54.8699 253.91H57.3599V256.4H54.8699V253.91Z" fill="#F0F0F0"/>
<path d="M54.8699 258.09H57.3599V260.58H54.8699V258.09Z" fill="#F0F0F0"/>
<path d="M54.8699 262.26H57.3599V264.75H54.8699V262.26Z" fill="#F0F0F0"/>
<path d="M58.83 170.33H61.3201V172.82H58.83V170.33Z" fill="#F0F0F0"/>
<path d="M58.83 174.51H61.3201V177H58.83V174.51Z" fill="#F0F0F0"/>
<path d="M58.83 178.69H61.3201V181.18H58.83V178.69Z" fill="#F0F0F0"/>
<path d="M58.83 182.86H61.3201V185.35H58.83V182.86Z" fill="#F0F0F0"/>
<path d="M58.83 187.04H61.3201V189.53H58.83V187.04Z" fill="#F0F0F0"/>
<path d="M58.83 191.22H61.3201V193.71H58.83V191.22Z" fill="#F0F0F0"/>
<path d="M58.83 195.4H61.3201V197.89H58.83V195.4Z" fill="#F0F0F0"/>
<path d="M58.83 199.58H61.3201V202.07H58.83V199.58Z" fill="#F0F0F0"/>
<path d="M58.83 203.76H61.3201V206.25H58.83V203.76Z" fill="#F0F0F0"/>
<path d="M58.83 207.94H61.3201V210.43H58.83V207.94Z" fill="#F0F0F0"/>
<path d="M58.83 212.12H61.3201V214.61H58.83V212.12Z" fill="#F0F0F0"/>
<path d="M58.83 216.3H61.3201V218.79H58.83V216.3Z" fill="#F0F0F0"/>
<path d="M58.83 220.48H61.3201V222.97H58.83V220.48Z" fill="#F0F0F0"/>
<path d="M58.83 224.65H61.3201V227.14H58.83V224.65Z" fill="#F0F0F0"/>
<path d="M58.83 228.83H61.3201V231.32H58.83V228.83Z" fill="#F0F0F0"/>
<path d="M58.83 233.01H61.3201V235.5H58.83V233.01Z" fill="#F0F0F0"/>
<path d="M58.83 258.09H61.3201V260.58H58.83V258.09Z" fill="#F0F0F0"/>
<path d="M58.83 262.26H61.3201V264.75H58.83V262.26Z" fill="#F0F0F0"/>
<path d="M62.78 170.33H65.27V172.82H62.78V170.33Z" fill="#F0F0F0"/>
<path d="M62.78 174.51H65.27V177H62.78V174.51Z" fill="#F0F0F0"/>
<path d="M62.78 178.69H65.27V181.18H62.78V178.69Z" fill="#F0F0F0"/>
<path d="M62.78 182.86H65.27V185.35H62.78V182.86Z" fill="#F0F0F0"/>
<path d="M62.78 187.04H65.27V189.53H62.78V187.04Z" fill="#F0F0F0"/>
<path d="M62.78 191.22H65.27V193.71H62.78V191.22Z" fill="#F0F0F0"/>
<path d="M62.78 195.4H65.27V197.89H62.78V195.4Z" fill="#F0F0F0"/>
<path d="M62.78 199.58H65.27V202.07H62.78V199.58Z" fill="#F0F0F0"/>
<path d="M62.78 203.76H65.27V206.25H62.78V203.76Z" fill="#F0F0F0"/>
<path d="M62.78 207.94H65.27V210.43H62.78V207.94Z" fill="#F0F0F0"/>
<path d="M62.78 212.12H65.27V214.61H62.78V212.12Z" fill="#F0F0F0"/>
<path d="M62.78 216.3H65.27V218.79H62.78V216.3Z" fill="#F0F0F0"/>
<path d="M62.78 220.48H65.27V222.97H62.78V220.48Z" fill="#F0F0F0"/>
<path d="M62.78 224.65H65.27V227.14H62.78V224.65Z" fill="#F0F0F0"/>
<path d="M62.78 228.83H65.27V231.32H62.78V228.83Z" fill="#F0F0F0"/>
<path d="M62.78 233.01H65.27V235.5H62.78V233.01Z" fill="#F0F0F0"/>
<path d="M62.78 241.37H65.27V243.86H62.78V241.37Z" fill="#F0F0F0"/>
<path d="M62.78 245.55H65.27V248.04H62.78V245.55Z" fill="#F0F0F0"/>
<path d="M62.78 249.73H65.27V252.22H62.78V249.73Z" fill="#F0F0F0"/>
<path d="M62.78 253.91H65.27V256.4H62.78V253.91Z" fill="#F0F0F0"/>
<path d="M62.78 262.26H65.27V264.75H62.78V262.26Z" fill="#F0F0F0"/>
<path d="M131.85 199.58H134.34V202.07H131.85V199.58Z" fill="#F0F0F0"/>
<path d="M131.85 203.76H134.34V206.25H131.85V203.76Z" fill="#F0F0F0"/>
<path d="M131.85 207.94H134.34V210.43H131.85V207.94Z" fill="#F0F0F0"/>
<path d="M131.85 212.12H134.34V214.61H131.85V212.12Z" fill="#F0F0F0"/>
<path d="M131.85 216.3H134.34V218.79H131.85V216.3Z" fill="#F0F0F0"/>
<path d="M131.85 220.48H134.34V222.97H131.85V220.48Z" fill="#F0F0F0"/>
<path d="M131.85 224.65H134.34V227.14H131.85V224.65Z" fill="#F0F0F0"/>
<path d="M131.85 228.83H134.34V231.32H131.85V228.83Z" fill="#F0F0F0"/>
<path d="M131.85 233.01H134.34V235.5H131.85V233.01Z" fill="#F0F0F0"/>
<path d="M131.85 237.19H134.34V239.68H131.85V237.19Z" fill="#F0F0F0"/>
<path d="M131.85 241.37H134.34V243.86H131.85V241.37Z" fill="#F0F0F0"/>
<path d="M131.85 245.55H134.34V248.04H131.85V245.55Z" fill="#F0F0F0"/>
<path d="M131.85 249.73H134.34V252.22H131.85V249.73Z" fill="#F0F0F0"/>
<path d="M131.85 258.09H134.34V260.58H131.85V258.09Z" fill="#F0F0F0"/>
<path d="M131.85 262.26H134.34V264.75H131.85V262.26Z" fill="#F0F0F0"/>
<path d="M131.85 266.44H134.34V268.93H131.85V266.44Z" fill="#F0F0F0"/>
<path d="M131.85 270.62H134.34V273.11H131.85V270.62Z" fill="#F0F0F0"/>
<path d="M131.85 278.98H134.34V281.47H131.85V278.98Z" fill="#F0F0F0"/>
<path d="M131.85 283.16H134.34V285.65H131.85V283.16Z" fill="#F0F0F0"/>
<path d="M131.85 287.34H134.34V289.83H131.85V287.34Z" fill="#F0F0F0"/>
<path d="M135.81 199.58H138.3V202.07H135.81V199.58Z" fill="#F0F0F0"/>
<path d="M135.81 203.76H138.3V206.25H135.81V203.76Z" fill="#F0F0F0"/>
<path d="M135.81 207.94H138.3V210.43H135.81V207.94Z" fill="#F0F0F0"/>
<path d="M135.81 212.12H138.3V214.61H135.81V212.12Z" fill="#F0F0F0"/>
<path d="M135.81 216.3H138.3V218.79H135.81V216.3Z" fill="#F0F0F0"/>
<path d="M135.81 220.48H138.3V222.97H135.81V220.48Z" fill="#F0F0F0"/>
<path d="M135.81 224.65H138.3V227.14H135.81V224.65Z" fill="#F0F0F0"/>
<path d="M135.81 228.83H138.3V231.32H135.81V228.83Z" fill="#F0F0F0"/>
<path d="M135.81 233.01H138.3V235.5H135.81V233.01Z" fill="#F0F0F0"/>
<path d="M135.81 237.19H138.3V239.68H135.81V237.19Z" fill="#F0F0F0"/>
<path d="M135.81 241.37H138.3V243.86H135.81V241.37Z" fill="#F0F0F0"/>
<path d="M135.81 245.55H138.3V248.04H135.81V245.55Z" fill="#F0F0F0"/>
<path d="M135.81 249.73H138.3V252.22H135.81V249.73Z" fill="#F0F0F0"/>
<path d="M135.81 262.26H138.3V264.75H135.81V262.26Z" fill="#F0F0F0"/>
<path d="M135.81 266.44H138.3V268.93H135.81V266.44Z" fill="#F0F0F0"/>
<path d="M135.81 274.8H138.3V277.29H135.81V274.8Z" fill="#F0F0F0"/>
<path d="M135.81 278.98H138.3V281.47H135.81V278.98Z" fill="#F0F0F0"/>
<path d="M135.81 283.16H138.3V285.65H135.81V283.16Z" fill="#F0F0F0"/>
<path d="M135.81 287.34H138.3V289.83H135.81V287.34Z" fill="#F0F0F0"/>
<path d="M139.77 199.58H142.26V202.07H139.77V199.58Z" fill="#F0F0F0"/>
<path d="M139.77 203.76H142.26V206.25H139.77V203.76Z" fill="#F0F0F0"/>
<path d="M139.77 207.94H142.26V210.43H139.77V207.94Z" fill="#F0F0F0"/>
<path d="M139.77 212.12H142.26V214.61H139.77V212.12Z" fill="#F0F0F0"/>
<path d="M139.77 216.3H142.26V218.79H139.77V216.3Z" fill="#F0F0F0"/>
<path d="M139.77 220.48H142.26V222.97H139.77V220.48Z" fill="#F0F0F0"/>
<path d="M139.77 224.65H142.26V227.14H139.77V224.65Z" fill="#F0F0F0"/>
<path d="M139.77 228.83H142.26V231.32H139.77V228.83Z" fill="#F0F0F0"/>
<path d="M139.77 233.01H142.26V235.5H139.77V233.01Z" fill="#F0F0F0"/>
<path d="M139.77 237.19H142.26V239.68H139.77V237.19Z" fill="#F0F0F0"/>
<path d="M139.77 241.37H142.26V243.86H139.77V241.37Z" fill="#F0F0F0"/>
<path d="M139.77 245.55H142.26V248.04H139.77V245.55Z" fill="#F0F0F0"/>
<path d="M139.77 249.73H142.26V252.22H139.77V249.73Z" fill="#F0F0F0"/>
<path d="M139.77 253.91H142.26V256.4H139.77V253.91Z" fill="#F0F0F0"/>
<path d="M139.77 262.26H142.26V264.75H139.77V262.26Z" fill="#F0F0F0"/>
<path d="M139.77 270.62H142.26V273.11H139.77V270.62Z" fill="#F0F0F0"/>
<path d="M139.77 274.8H142.26V277.29H139.77V274.8Z" fill="#F0F0F0"/>
<path d="M139.77 278.98H142.26V281.47H139.77V278.98Z" fill="#F0F0F0"/>
<path d="M139.77 283.16H142.26V285.65H139.77V283.16Z" fill="#F0F0F0"/>
<path d="M139.77 287.34H142.26V289.83H139.77V287.34Z" fill="#F0F0F0"/>
<path d="M115.72 223.41H118.21V225.9H115.72V223.41Z" fill="#F0F0F0"/>
<path d="M115.72 227.59H118.21V230.08H115.72V227.59Z" fill="#F0F0F0"/>
<path d="M115.72 231.77H118.21V234.26H115.72V231.77Z" fill="#F0F0F0"/>
<path d="M115.72 235.94H118.21V238.43H115.72V235.94Z" fill="#F0F0F0"/>
<path d="M115.72 240.12H118.21V242.61H115.72V240.12Z" fill="#F0F0F0"/>
<path d="M115.72 244.3H118.21V246.79H115.72V244.3Z" fill="#F0F0F0"/>
<path d="M115.72 256.84H118.21V259.33H115.72V256.84Z" fill="#F0F0F0"/>
<path d="M115.72 261.02H118.21V263.51H115.72V261.02Z" fill="#F0F0F0"/>
<path d="M115.72 265.2H118.21V267.69H115.72V265.2Z" fill="#F0F0F0"/>
<path d="M115.72 269.38H118.21V271.87H115.72V269.38Z" fill="#F0F0F0"/>
<path d="M115.72 273.56H118.21V276.05H115.72V273.56Z" fill="#F0F0F0"/>
<path d="M115.72 277.73H118.21V280.22H115.72V277.73Z" fill="#F0F0F0"/>
<path d="M115.72 281.91H118.21V284.4H115.72V281.91Z" fill="#F0F0F0"/>
<path d="M119.68 223.41H122.17V225.9H119.68V223.41Z" fill="#F0F0F0"/>
<path d="M119.68 227.59H122.17V230.08H119.68V227.59Z" fill="#F0F0F0"/>
<path d="M119.68 231.77H122.17V234.26H119.68V231.77Z" fill="#F0F0F0"/>
<path d="M119.68 235.94H122.17V238.43H119.68V235.94Z" fill="#F0F0F0"/>
<path d="M119.68 240.12H122.17V242.61H119.68V240.12Z" fill="#F0F0F0"/>
<path d="M119.68 244.3H122.17V246.79H119.68V244.3Z" fill="#F0F0F0"/>
<path d="M119.68 256.84H122.17V259.33H119.68V256.84Z" fill="#F0F0F0"/>
<path d="M119.68 261.02H122.17V263.51H119.68V261.02Z" fill="#F0F0F0"/>
<path d="M119.68 265.2H122.17V267.69H119.68V265.2Z" fill="#F0F0F0"/>
<path d="M119.68 269.38H122.17V271.87H119.68V269.38Z" fill="#F0F0F0"/>
<path d="M119.68 273.56H122.17V276.05H119.68V273.56Z" fill="#F0F0F0"/>
<path d="M119.68 277.73H122.17V280.22H119.68V277.73Z" fill="#F0F0F0"/>
<path d="M119.68 286.09H122.17V288.58H119.68V286.09Z" fill="#F0F0F0"/>
<path d="M251.21 205.01H253.7V207.5H251.21V205.01Z" fill="#F0F0F0"/>
<path d="M251.21 209.18H253.7V211.67H251.21V209.18Z" fill="#F0F0F0"/>
<path d="M251.21 213.36H253.7V215.85H251.21V213.36Z" fill="#F0F0F0"/>
<path d="M251.21 217.54H253.7V220.03H251.21V217.54Z" fill="#F0F0F0"/>
<path d="M251.21 221.72H253.7V224.21H251.21V221.72Z" fill="#F0F0F0"/>
<path d="M251.21 225.9H253.7V228.39H251.21V225.9Z" fill="#F0F0F0"/>
<path d="M251.21 230.08H253.7V232.57H251.21V230.08Z" fill="#F0F0F0"/>
<path d="M251.21 234.26H253.7V236.75H251.21V234.26Z" fill="#F0F0F0"/>
<path d="M251.21 238.44H253.7V240.93H251.21V238.44Z" fill="#F0F0F0"/>
<path d="M251.21 242.62H253.7V245.11H251.21V242.62Z" fill="#F0F0F0"/>
<path d="M251.21 246.8H253.7V249.29H251.21V246.8Z" fill="#F0F0F0"/>
<path d="M251.21 255.15H253.7V257.64H251.21V255.15Z" fill="#F0F0F0"/>
<path d="M251.21 259.33H253.7V261.82H251.21V259.33Z" fill="#F0F0F0"/>
<path d="M251.21 263.51H253.7V266H251.21V263.51Z" fill="#F0F0F0"/>
<path d="M251.21 267.69H253.7V270.18H251.21V267.69Z" fill="#F0F0F0"/>
<path d="M251.21 271.87H253.7V274.36H251.21V271.87Z" fill="#F0F0F0"/>
<path d="M251.21 276.05H253.7V278.54H251.21V276.05Z" fill="#F0F0F0"/>
<path d="M251.21 280.23H253.7V282.72H251.21V280.23Z" fill="#F0F0F0"/>
<path d="M251.21 284.41H253.7V286.9H251.21V284.41Z" fill="#F0F0F0"/>
<path d="M255.16 205.01H257.65V207.5H255.16V205.01Z" fill="#F0F0F0"/>
<path d="M255.16 209.18H257.65V211.67H255.16V209.18Z" fill="#F0F0F0"/>
<path d="M255.16 213.36H257.65V215.85H255.16V213.36Z" fill="#F0F0F0"/>
<path d="M255.16 217.54H257.65V220.03H255.16V217.54Z" fill="#F0F0F0"/>
<path d="M255.16 221.72H257.65V224.21H255.16V221.72Z" fill="#F0F0F0"/>
<path d="M255.16 225.9H257.65V228.39H255.16V225.9Z" fill="#F0F0F0"/>
<path d="M255.16 230.08H257.65V232.57H255.16V230.08Z" fill="#F0F0F0"/>
<path d="M255.16 234.26H257.65V236.75H255.16V234.26Z" fill="#F0F0F0"/>
<path d="M255.16 238.44H257.65V240.93H255.16V238.44Z" fill="#F0F0F0"/>
<path d="M255.16 242.62H257.65V245.11H255.16V242.62Z" fill="#F0F0F0"/>
<path d="M255.16 246.8H257.65V249.29H255.16V246.8Z" fill="#F0F0F0"/>
<path d="M255.16 250.97H257.65V253.46H255.16V250.97Z" fill="#F0F0F0"/>
<path d="M255.16 255.15H257.65V257.64H255.16V255.15Z" fill="#F0F0F0"/>
<path d="M255.16 259.33H257.65V261.82H255.16V259.33Z" fill="#F0F0F0"/>
<path d="M255.16 263.51H257.65V266H255.16V263.51Z" fill="#F0F0F0"/>
<path d="M255.16 267.69H257.65V270.18H255.16V267.69Z" fill="#F0F0F0"/>
<path d="M255.16 271.87H257.65V274.36H255.16V271.87Z" fill="#F0F0F0"/>
<path d="M255.16 276.05H257.65V278.54H255.16V276.05Z" fill="#F0F0F0"/>
<path d="M255.16 280.23H257.65V282.72H255.16V280.23Z" fill="#F0F0F0"/>
<path d="M255.16 284.41H257.65V286.9H255.16V284.41Z" fill="#F0F0F0"/>
<path d="M231.7 221.28H234.19V223.77H231.7V221.28Z" fill="#F0F0F0"/>
<path d="M231.7 225.46H234.19V227.95H231.7V225.46Z" fill="#F0F0F0"/>
<path d="M231.7 229.64H234.19V232.13H231.7V229.64Z" fill="#F0F0F0"/>
<path d="M231.7 233.82H234.19V236.31H231.7V233.82Z" fill="#F0F0F0"/>
<path d="M231.7 238H234.19V240.49H231.7V238Z" fill="#F0F0F0"/>
<path d="M231.7 242.18H234.19V244.67H231.7V242.18Z" fill="#F0F0F0"/>
<path d="M231.7 246.36H234.19V248.85H231.7V246.36Z" fill="#F0F0F0"/>
<path d="M231.7 250.53H234.19V253.02H231.7V250.53Z" fill="#F0F0F0"/>
<path d="M231.7 254.71H234.19V257.2H231.7V254.71Z" fill="#F0F0F0"/>
<path d="M231.7 258.89H234.19V261.38H231.7V258.89Z" fill="#F0F0F0"/>
<path d="M235.66 221.28H238.15V223.77H235.66V221.28Z" fill="#F0F0F0"/>
<path d="M235.66 225.46H238.15V227.95H235.66V225.46Z" fill="#F0F0F0"/>
<path d="M235.66 229.64H238.15V232.13H235.66V229.64Z" fill="#F0F0F0"/>
<path d="M235.66 233.82H238.15V236.31H235.66V233.82Z" fill="#F0F0F0"/>
<path d="M235.66 238H238.15V240.49H235.66V238Z" fill="#F0F0F0"/>
<path d="M235.66 242.18H238.15V244.67H235.66V242.18Z" fill="#F0F0F0"/>
<path d="M235.66 246.36H238.15V248.85H235.66V246.36Z" fill="#F0F0F0"/>
<path d="M235.66 250.53H238.15V253.02H235.66V250.53Z" fill="#F0F0F0"/>
<path d="M235.66 254.71H238.15V257.2H235.66V254.71Z" fill="#F0F0F0"/>
<path d="M212.11 62.6899H216.29V295.77H212.11V62.6899Z" fill="#E0E0E0"/>
<path d="M133.4 62.6899H137.58V295.77H133.4V62.6899Z" fill="#E0E0E0"/>
<path d="M54.6999 62.6899H58.8799V295.77H54.6999V62.6899Z" fill="#E0E0E0"/>
<path d="M321.99 327.33H356.58V277.5C356.58 275.07 354.61 273.09 352.17 273.09H326.39C323.96 273.09 321.98 275.06 321.98 277.5V327.33H321.99Z" fill="#F0F0F0"/>
<path d="M321.99 280.43H356.58V284.32H321.99V280.43Z" fill="#E6E6E6"/>
<path d="M328.3 320.76H336.92C338.23 320.76 339.29 321.82 339.29 323.13V327.33H325.93V323.13C325.92 321.82 326.99 320.76 328.3 320.76Z" fill="#E0E0E0"/>
<path d="M325.88 327.33H335.47C336.32 327.33 337.01 326.64 337.01 325.79C337.01 324.94 336.32 324.25 335.47 324.25H325.88C325.03 324.25 324.34 324.94 324.34 325.79C324.34 326.64 325.03 327.33 325.88 327.33Z" fill="#E6E6E6"/>
<path d="M172.299 51.7196C159.641 48.7308 151.803 36.0467 154.792 23.389C157.781 10.7312 170.465 2.89306 183.123 5.88191C195.78 8.87076 203.619 21.5548 200.63 34.2126C197.641 46.8703 184.957 54.7085 172.299 51.7196Z" fill="#E0E0E0"/>
<path d="M174.485 48.5871C163.566 46.8149 156.15 36.5262 157.922 25.6067C159.694 14.6871 169.983 7.27171 180.903 9.04388C191.822 10.8161 199.238 21.1047 197.466 32.0243C195.693 42.9439 185.405 50.3593 174.485 48.5871Z" fill="#F0F0F0"/>
<path d="M176.76 15.0801V29.0801L167.48 23.8301" fill="#F0F0F0"/>
<path d="M176.76 15.0801V29.0801L167.48 23.8301" stroke="#E0E0E0" stroke-width="2" stroke-miterlimit="10" stroke-linecap="round" stroke-linejoin="round"/>
<path d="M403.07 258.69C404.87 255.73 407.83 258.3 407.83 258.3C407.41 252.62 412.63 248.74 412.63 248.74C412.63 248.74 406.56 248.74 405.71 242.95C404.86 237.16 407.83 239.85 410.61 239.81C413.39 239.77 416.3 247.9 412.63 252.46C408.96 257.03 409.95 264.83 418.41 272.33C420.48 274.16 421.88 276.6 422.83 279.23C422.19 272.34 421.83 262.63 423.86 256.15C427.3 245.14 420.74 242.18 418.84 236.67C416.93 231.16 423.86 226.51 423.86 226.51C423.86 226.51 417.35 223.55 420.53 220.16C423.71 216.77 430.27 217.23 430.27 221.66C430.27 226.09 425.82 227.78 425.82 227.78C425.82 227.78 420.74 233.07 420.74 235.83C420.74 238.58 425.82 244.51 425.82 244.51C425.82 244.51 423.49 239.44 428.15 239.22C432.81 239 434.29 245.14 432.38 247.9C430.47 250.65 427.3 248.32 427.3 248.32C427.3 248.32 426.93 254.25 425.84 257.85C425.36 259.43 425.59 265.64 425.99 272.1C426.93 269.77 428.25 267.63 430.11 265.98C438.58 258.48 439.56 250.68 435.89 246.11C432.22 241.54 435.13 233.42 437.91 233.46C440.69 233.5 443.66 230.8 442.81 236.6C441.96 242.4 435.89 242.39 435.89 242.39C435.89 242.39 441.12 246.28 440.69 251.95C440.69 251.95 443.65 249.37 445.45 252.34C448.66 257.63 441.22 260.91 439.96 258.31C439.96 258.31 424.17 269.49 427.98 285.58L427.09 286.89C427.2 288.19 427.28 288.97 427.28 288.97L426.04 288.44L424.63 290.51C424.7 294.53 424.27 297.5 424.27 297.5L420.49 291.93C424.3 275.84 408.51 264.66 408.51 264.66C407.3 267.27 399.86 263.98 403.07 258.69Z" fill="#E0E0E0"/>
<path opacity="0.2" d="M403.07 258.69C404.87 255.73 407.83 258.3 407.83 258.3C407.41 252.62 412.63 248.74 412.63 248.74C412.63 248.74 406.56 248.74 405.71 242.95C404.86 237.16 407.83 239.85 410.61 239.81C413.39 239.77 416.3 247.9 412.63 252.46C408.96 257.03 409.95 264.83 418.41 272.33C420.48 274.16 421.88 276.6 422.83 279.23C422.19 272.34 421.83 262.63 423.86 256.15C427.3 245.14 420.74 242.18 418.84 236.67C416.93 231.16 423.86 226.51 423.86 226.51C423.86 226.51 417.35 223.55 420.53 220.16C423.71 216.77 430.27 217.23 430.27 221.66C430.27 226.09 425.82 227.78 425.82 227.78C425.82 227.78 420.74 233.07 420.74 235.83C420.74 238.58 425.82 244.51 425.82 244.51C425.82 244.51 423.49 239.44 428.15 239.22C432.81 239 434.29 245.14 432.38 247.9C430.47 250.65 427.3 248.32 427.3 248.32C427.3 248.32 426.93 254.25 425.84 257.85C425.36 259.43 425.59 265.64 425.99 272.1C426.93 269.77 428.25 267.63 430.11 265.98C438.58 258.48 439.56 250.68 435.89 246.11C432.22 241.54 435.13 233.42 437.91 233.46C440.69 233.5 443.66 230.8 442.81 236.6C441.96 242.4 435.89 242.39 435.89 242.39C435.89 242.39 441.12 246.28 440.69 251.95C440.69 251.95 443.65 249.37 445.45 252.34C448.66 257.63 441.22 260.91 439.96 258.31C439.96 258.31 424.17 269.49 427.98 285.58L427.09 286.89C427.2 288.19 427.28 288.97 427.28 288.97L426.04 288.44L424.63 290.51C424.7 294.53 424.27 297.5 424.27 297.5L420.49 291.93C424.3 275.84 408.51 264.66 408.51 264.66C407.3 267.27 399.86 263.98 403.07 258.69Z" fill="#E0E0E0"/>
<path d="M406.16 327.33H442.33L446.24 287.73H402.26L406.16 327.33Z" fill="#E6E6E6"/>
<path d="M400.33 283.36H448.17V292.1H400.33V283.36Z" fill="#F0F0F0"/>
<path d="M250 372.61C142.917 372.61 56.1096 367.542 56.1096 361.29C56.1096 355.038 142.917 349.97 250 349.97C357.082 349.97 443.89 355.038 443.89 361.29C443.89 367.542 357.082 372.61 250 372.61Z" fill="#F5F5F5"/>
<path d="M89.5501 329.77C89.4001 328.75 85.9001 304.6 92.9101 296.26C94.4601 294.41 96.4201 293.45 98.7301 293.39C112.88 293.06 114.82 304.43 114.84 304.54L113.17 304.8C113.11 304.39 111.43 294.77 98.7701 295.08C96.9401 295.12 95.4401 295.87 94.2001 297.35C87.6701 305.11 91.1801 329.28 91.2201 329.52L89.5501 329.77Z" fill="#333333"/>
<path d="M88.7 328.67L87.01 328.62C87.02 328.4 87.57 306.37 76.72 301.82C66.08 297.36 61.3 306.53 61.1 306.92L59.59 306.16C59.65 306.05 65.26 295.18 77.37 300.26C89.29 305.25 88.73 327.71 88.7 328.67Z" fill="#333333"/>
<path d="M88.7499 330.4C88.7499 330.05 88.6499 295.21 81.8599 285.02C75.3399 275.24 64.8199 279.84 64.3699 280.04L63.67 278.5C63.79 278.44 75.9299 273.09 83.2599 284.08C90.3299 294.69 90.4399 328.94 90.4399 330.4H88.7499Z" fill="#333333"/>
<path d="M100.76 294.23C100.76 294.23 94.5801 296.51 96.4201 301.89C98.2601 307.27 117.8 316.12 117.8 316.12C117.8 316.12 125.98 308.62 118.47 296.42C110.95 284.21 100.93 290.38 100.76 294.23Z" fill="#333333"/>
<path d="M81.5501 283.18C81.5501 283.18 85.9401 282.71 85.5801 280.04C85.2301 277.37 68.5301 270.49 58.6701 281.61C58.6701 281.61 64.9801 292.45 74.1001 292.59C83.2201 292.73 81.5501 283.18 81.5501 283.18Z" fill="#333333"/>
<path d="M77.0399 301.03C77.0399 301.03 80.0699 298.59 76.7999 297.39C73.5299 296.2 57.4999 296.54 57.3299 312.42C57.3299 312.42 75.9999 315.52 78.3099 309.47C80.6199 303.42 77.0399 301.03 77.0399 301.03Z" fill="#333333"/>
<path opacity="0.2" d="M100.76 294.23C100.76 294.23 94.5801 296.51 96.4201 301.89C98.2601 307.27 117.8 316.12 117.8 316.12C117.8 316.12 125.98 308.62 118.47 296.42C110.95 284.21 100.93 290.38 100.76 294.23Z" fill="#333333"/>
<path opacity="0.2" d="M81.5501 283.18C81.5501 283.18 85.9401 282.71 85.5801 280.04C85.2301 277.37 68.5301 270.49 58.6701 281.61C58.6701 281.61 64.9801 292.45 74.1001 292.59C83.2201 292.73 81.5501 283.18 81.5501 283.18Z" fill="#333333"/>
<path opacity="0.2" d="M77.0399 301.03C77.0399 301.03 80.0699 298.59 76.7999 297.39C73.5299 296.2 57.4999 296.54 57.3299 312.42C57.3299 312.42 75.9999 315.52 78.3099 309.47C80.6199 303.42 77.0399 301.03 77.0399 301.03Z" fill="#333333"/>
<path d="M104.08 362.12H75.1002L71.9802 330.4H107.2L104.08 362.12Z" fill="#333333"/>
<path opacity="0.5" d="M104.08 362.12H75.1002L71.9802 330.4H107.2L104.08 362.12Z" fill="#333333"/>
<path d="M108.75 333.891H70.4299V326.891H108.75V333.891Z" fill="#333333"/>
<path opacity="0.2" d="M108.75 333.891H70.4299V326.891H108.75V333.891Z" fill="#333333"/>
<path d="M136.88 339.38L165.69 336.55V296.06H177.11V336.54L206.04 339.38C208.91 339.66 211.1 342.08 211.1 344.96V349.29H172.52H170.4H131.82V344.96C131.82 342.08 134 339.66 136.88 339.38Z" fill="#263238"/>
<path opacity="0.2" d="M136.88 339.38L165.69 336.55V296.06H177.11V336.54L206.04 339.38C208.91 339.66 211.1 342.08 211.1 344.96V349.29H172.52H170.4H131.82V344.96C131.82 342.08 134 339.66 136.88 339.38Z" fill="white"/>
<path d="M208.05 362.13C203.924 362.13 200.58 358.785 200.58 354.66C200.58 350.534 203.924 347.19 208.05 347.19C212.175 347.19 215.52 350.534 215.52 354.66C215.52 358.785 212.175 362.13 208.05 362.13Z" fill="#263238"/>
<path d="M134.86 362.13C130.734 362.13 127.39 358.785 127.39 354.66C127.39 350.534 130.734 347.19 134.86 347.19C138.985 347.19 142.33 350.534 142.33 354.66C142.33 358.785 138.985 362.13 134.86 362.13Z" fill="#263238"/>
<path d="M167.86 304.76H174.95C177.23 304.76 179.08 302.91 179.08 300.63V268.7H163.73V300.63C163.72 302.91 165.57 304.76 167.86 304.76Z" fill="#263238"/>
<path opacity="0.3" d="M167.86 304.76H174.95C177.23 304.76 179.08 302.91 179.08 300.63V268.7H163.73V300.63C163.72 302.91 165.57 304.76 167.86 304.76Z" fill="white"/>
<path d="M144.099 205.4C144.099 205.4 141.919 259.4 156.959 268.69H139.799C139.799 268.69 126.499 250.29 130.259 205.4H144.099Z" fill="#263238"/>
<path opacity="0.3" d="M144.099 205.4C144.099 205.4 141.919 259.4 156.959 268.69H139.799C139.799 268.69 126.499 250.29 130.259 205.4H144.099Z" fill="white"/>
<path d="M205.87 261.14H138.95C136.19 261.14 133.95 263.38 133.95 266.14V272.83H210.87V266.14C210.87 263.38 208.63 261.14 205.87 261.14Z" fill="#263238"/>
<path d="M212.06 266.99H132.75C131.64 266.99 130.74 267.89 130.74 269V270.82C130.74 271.93 131.64 272.83 132.75 272.83H212.06C213.17 272.83 214.07 271.93 214.07 270.82V269C214.07 267.89 213.17 266.99 212.06 266.99Z" fill="#263238"/>
<path opacity="0.6" d="M212.06 266.99H132.75C131.64 266.99 130.74 267.89 130.74 269V270.82C130.74 271.93 131.64 272.83 132.75 272.83H212.06C213.17 272.83 214.07 271.93 214.07 270.82V269C214.07 267.89 213.17 266.99 212.06 266.99Z" fill="white"/>
<path d="M126.05 216.37H153.54C161.59 216.37 168.12 209.84 168.12 201.79V191.04C168.12 182.99 161.59 176.46 153.54 176.46H126.05C118 176.46 111.47 182.99 111.47 191.04V201.79C111.46 209.84 117.99 216.37 126.05 216.37Z" fill="#263238"/>
<path d="M236.95 132.33L242.44 117.86C242.44 117.86 240.09 115.68 241.7 113.47C243.31 111.26 253.44 105.04 255.29 106.14C257.14 107.23 261.23 111.35 259.02 113.64C256.8 115.93 246.99 119.74 246.99 119.74L242.14 138.73L236.95 132.33Z" fill="#E4897B"/>
<path d="M198.62 159.84C198.62 159.84 223.59 154.71 226.3 153.48C229.01 152.25 239.06 122.82 239.06 122.82L246.76 126.42C246.76 126.42 240.56 155.96 234.22 162.99C227.88 170.01 200.83 175.96 200.83 175.96L198.62 159.84Z" fill="#FFB459"/>
<path opacity="0.2" d="M200.83 175.95C200.83 175.95 200.99 175.92 201.29 175.84C202.66 175.53 206.92 174.53 211.99 173.04C220.22 170.65 230.6 166.99 234.22 162.98C240.55 155.95 246.76 126.41 246.76 126.41L239.06 122.81C239.06 122.81 229.01 152.25 226.29 153.47C223.58 154.69 198.62 159.82 198.62 159.82L200.83 175.95Z" fill="#FFB459"/>
<path d="M238.93 122.24L237.34 125.31L247.24 128.72L246.86 124.97L238.93 122.24Z" fill="#333333"/>
<path opacity="0.2" d="M200.64 175.54C202.03 175.34 206.36 174.67 211.53 173.58C208.58 168.49 199.94 165.87 199.94 165.87L200.64 175.54Z" fill="black"/>
<path d="M163.42 139.46C163.42 139.46 161.95 153.29 167.08 156.69C172.2 160.09 197.41 156.11 200.27 150.54C203.13 144.98 192.37 129.87 192.37 129.87L163.42 139.46Z" fill="#263238"/>
<path d="M265.41 321.45L258.83 323.03L255.5 313.95L252.48 305.69L259.97 302.5L262.85 312.52L265.41 321.45Z" fill="#E4897B"/>
<path opacity="0.2" d="M262.85 312.52L255.5 313.95L252.48 305.69L259.97 302.5L262.85 312.52Z" fill="black"/>
<path d="M262.19 307.73L253.07 311.12C253.07 311.12 228.74 250.29 223.74 250.08C218.74 249.87 167.83 273.27 155.07 260.29C142.31 247.32 160.76 216.05 160.76 216.05C160.76 216.05 191.45 211.67 193.76 218.6C194.21 219.94 194.7 222.57 195.06 224.82C195.41 226.94 195.65 228.72 195.65 228.72C195.65 228.72 195.66 228.72 195.67 228.71C196.62 228.47 227.43 220.52 239.57 228.72C251.9 237.06 262.19 307.73 262.19 307.73Z" fill="#407BFF"/>
<path opacity="0.6" d="M262.19 307.73L253.07 311.12C253.07 311.12 228.74 250.29 223.74 250.08C218.74 249.87 167.83 273.27 155.07 260.29C142.31 247.32 160.76 216.05 160.76 216.05C160.76 216.05 191.45 211.67 193.76 218.6C194.21 219.94 194.7 222.57 195.06 224.82C195.41 226.94 195.65 228.72 195.65 228.72C195.65 228.72 195.66 228.72 195.67 228.71C196.62 228.47 227.43 220.52 239.57 228.72C251.9 237.06 262.19 307.73 262.19 307.73Z" fill="white"/>
<path d="M209.73 347.39L203.18 345.72L204.44 336.32L205.61 327.69L213.71 328.42L211.61 338.47L209.73 347.39Z" fill="#E4897B"/>
<path opacity="0.2" d="M211.56 338.67L204.4 336.5L205.59 327.78L213.7 328.47L211.56 338.67Z" fill="black"/>
<path d="M249.3 307.74L262.59 303.23L263.15 308.67L253.08 312.23L249.3 307.74Z" fill="#FFB459"/>
<path d="M177.11 263.41C177.11 263.41 179.19 263.46 211.38 261.96C211.38 261.96 206.57 302.21 203.94 332.33L213.57 333.97C213.57 333.97 236.57 269.46 236.32 259.21C236.07 248.96 224.32 245.96 224.32 245.96C224.32 245.96 201.39 259.21 177.11 263.41Z" fill="#407BFF"/>
<path opacity="0.6" d="M177.11 263.41C177.11 263.41 179.19 263.46 211.38 261.96C211.38 261.96 206.57 302.21 203.94 332.33L213.57 333.97C213.57 333.97 236.57 269.46 236.32 259.21C236.07 248.96 224.32 245.96 224.32 245.96C224.32 245.96 201.39 259.21 177.11 263.41Z" fill="white"/>
<path opacity="0.1" d="M177.11 263.41C177.11 263.41 179.19 263.46 211.38 261.96C211.38 261.96 206.57 302.21 203.94 332.33L213.57 333.97C213.57 333.97 236.57 269.46 236.32 259.21C236.07 248.96 224.32 245.96 224.32 245.96C224.32 245.96 201.39 259.21 177.11 263.41Z" fill="black"/>
<path d="M202.54 329.41L215.77 330.92L213.21 336.1L202.5 334.73L202.54 329.41Z" fill="#FFB459"/>
<path opacity="0.1" d="M195.65 228.72L177.7 232.46C177.7 232.46 187.62 226.98 195.06 224.82C195.41 226.94 195.65 228.72 195.65 228.72Z" fill="black"/>
<path d="M161.5 211.28L160.76 216.05L193.76 218.6L194.64 212.95L161.5 211.28Z" fill="#263238"/>
<path opacity="0.2" d="M161.5 211.28L160.76 216.05L193.76 218.6L194.64 212.95L161.5 211.28Z" fill="black"/>
<path d="M171.928 219.265L170.296 219.097L171.15 210.79L172.782 210.958L171.928 219.265Z" fill="#407BFF"/>
<path d="M186.533 218.43L179.308 217.966L179.66 212.487L186.885 212.951L186.533 218.43Z" fill="white"/>
<path d="M192.142 220.166L190.511 219.998L191.365 211.692L192.997 211.86L192.142 220.166Z" fill="#407BFF"/>
<path opacity="0.6" d="M171.928 219.265L170.296 219.097L171.15 210.79L172.782 210.958L171.928 219.265Z" fill="white"/>
<path opacity="0.6" d="M192.142 220.166L190.511 219.998L191.365 211.692L192.997 211.86L192.142 220.166Z" fill="white"/>
<path d="M199.22 159.39C199.22 159.39 190.8 162.03 180.21 161.49C169.62 160.95 156.96 166.09 156.96 166.09L161.51 211.28L194.64 212.95C194.64 212.95 205.77 175.21 199.22 159.39Z" fill="#FFEDD7"/>
<path d="M193.89 133.86C193.89 133.86 192.03 111.91 173.68 119.89C150.65 129.9 168.96 156.63 180.21 151.14C191.46 145.65 193.89 133.86 193.89 133.86Z" fill="#263238"/>
<path opacity="0.2" d="M188.75 162.71L188.22 175.11L184.11 169.28C184.11 169.28 185.58 183 184.72 190.46C184.72 190.46 183.93 177.07 182.07 169.28L177.7 175.11L171.43 162.79C171.42 162.79 181.58 159.14 188.75 162.71Z" fill="black"/>
<path d="M183.07 165.02L173.58 162.34C179.43 158.32 176.48 149.32 176.48 149.32L185.88 152.62C185.38 154.18 185.06 155.5 184.87 156.64C183.89 162.5 186.54 162.97 186.54 162.97L183.07 165.02Z" fill="#E4897B"/>
<path opacity="0.2" d="M185.88 152.62C185.38 154.18 185.06 155.5 184.87 156.64C180.37 154.84 176.48 149.32 176.48 149.32L185.88 152.62Z" fill="black"/>
<path d="M179.74 124.5C188.06 122.66 191.73 126.52 194.24 134.96C197.37 145.51 196.68 153.65 185.77 153.66C170.95 153.69 165.92 127.56 179.74 124.5Z" fill="#E4897B"/>
<path d="M188.76 135.69C188.76 135.69 190.39 137.61 191.95 138.61C191.95 138.61 191.49 139.9 189.96 140.04L188.76 135.69Z" fill="#DE5753"/>
<path d="M183.51 136.13C183.68 136.81 183.45 137.45 182.99 137.56C182.54 137.67 182.03 137.21 181.87 136.53C181.7 135.85 181.93 135.21 182.39 135.1C182.84 134.99 183.34 135.45 183.51 136.13Z" fill="#263238"/>
<path d="M182.21 135.18L183.55 134.24C183.54 134.24 183.11 135.67 182.21 135.18Z" fill="#263238"/>
<path d="M191.93 133.91C192.1 134.59 191.87 135.23 191.41 135.34C190.96 135.45 190.45 134.99 190.29 134.31C190.12 133.63 190.35 132.99 190.81 132.88C191.26 132.77 191.76 133.23 191.93 133.91Z" fill="#263238"/>
<path d="M190.63 132.96L191.97 132.02C191.96 132.02 191.53 133.44 190.63 132.96Z" fill="#263238"/>
<path d="M182.16 130.41C182.16 130.41 179.75 130.62 178.83 132.47" stroke="#263238" stroke-width="0.7247" stroke-miterlimit="10" stroke-linecap="round" stroke-linejoin="round"/>
<path d="M188.13 128.72C188.13 128.72 189.48 127.85 191.6 128.67" stroke="#263238" stroke-width="0.7247" stroke-miterlimit="10" stroke-linecap="round" stroke-linejoin="round"/>
<path d="M173.75 140.54C173.75 140.54 176.13 132.84 174.37 127.69C174.37 127.69 189.37 117.3 193.89 133.86C193.89 133.86 192.21 118.64 177.83 121.47C163.47 124.3 168.14 145.22 176.91 149.82C176.92 149.83 172.29 145.35 173.75 140.54Z" fill="#263238"/>
<path d="M175.5 142C175.15 140.67 173.26 138.71 170.83 139.53C168.31 140.38 168.26 145.95 174.95 145.8C175.92 145.78 176.24 144.77 175.5 142Z" fill="#E4897B"/>
<path d="M191.45 143.19C191.16 144.29 191.02 146.28 191.02 146.28C190.84 146.3 190.65 146.32 190.47 146.33C187.99 146.54 186.76 145.82 186.16 144.95C185.83 144.48 185.7 143.95 185.64 143.52C185.57 143.02 185.64 142.65 185.64 142.65C187.02 143.33 189.36 143.31 190.6 143.24C191.12 143.23 191.45 143.19 191.45 143.19Z" fill="#263238"/>
<path d="M190.6 143.25L190.45 144.16C188.11 144.35 186.43 144.18 185.64 143.53C185.57 143.03 185.64 142.66 185.64 142.66C187.02 143.33 189.35 143.31 190.6 143.25Z" fill="white"/>
<path d="M190.47 146.34C187.99 146.55 186.76 145.83 186.16 144.96C187.01 144.92 188.04 144.97 188.97 145.27C189.67 145.5 190.14 145.91 190.47 146.34Z" fill="#DE5753"/>
<path d="M179.71 125.17C179.71 125.17 179.39 139.61 170.73 141.34C162.07 143.07 171.54 122.79 171.54 122.79C171.54 122.79 184.44 114.37 193.03 120.3C201.63 126.24 193.9 133.87 193.9 133.87C193.9 133.87 192.08 123.14 179.71 125.17Z" fill="#263238"/>
<path d="M179.41 124.21C179.41 124.21 182.5 133.34 176.4 138.13" stroke="#263238" stroke-width="0.5" stroke-miterlimit="10" stroke-linecap="round" stroke-linejoin="round"/>
<path d="M168.2 144.3C169.3 147.24 172.13 148.89 174.52 147.99C176.91 147.09 177.95 143.99 176.85 141.05C175.75 138.11 172.92 136.46 170.53 137.36C168.14 138.26 167.1 141.37 168.2 144.3Z" fill="#407BFF"/>
<path opacity="0.4" d="M168.2 144.3C169.3 147.24 172.13 148.89 174.52 147.99C176.91 147.09 177.95 143.99 176.85 141.05C175.75 138.11 172.92 136.46 170.53 137.36C168.14 138.26 167.1 141.37 168.2 144.3Z" fill="black"/>
<path d="M170.96 139.49C170.96 139.49 167.37 123.42 175.42 119.21C175.42 119.21 173.74 119.44 172.7 119.74C171.66 120.04 165.23 126.56 168.48 141L170.96 139.49Z" fill="#407BFF"/>
<path opacity="0.2" d="M170.96 139.49C170.96 139.49 167.37 123.42 175.42 119.21C175.42 119.21 173.74 119.44 172.7 119.74C171.66 120.04 165.23 126.56 168.48 141L170.96 139.49Z" fill="black"/>
<path d="M186.05 148.69C186.25 148.66 186.45 148.63 186.65 148.6L186.49 147.61C179.24 148.79 173.85 144.96 173.8 144.92L173.21 145.73C173.43 145.89 178.68 149.66 186.05 148.69Z" fill="#407BFF"/>
<g opacity="0.2">
<path opacity="0.2" d="M186.05 148.69C186.25 148.66 186.45 148.63 186.65 148.6L186.49 147.61C179.24 148.79 173.85 144.96 173.8 144.92L173.21 145.73C173.43 145.89 178.68 149.66 186.05 148.69Z" fill="black"/>
</g>
<path d="M168.54 143.9C169.27 145.84 171.14 146.93 172.72 146.34C174.3 145.75 174.99 143.69 174.26 141.75C173.53 139.81 171.66 138.72 170.08 139.31C168.5 139.91 167.81 141.96 168.54 143.9Z" fill="#407BFF"/>
<path d="M186.94 149.02L187.74 148.91C188.34 148.83 188.76 148.29 188.68 147.69C188.6 147.09 188.06 146.67 187.46 146.75L186.66 146.86C186.06 146.94 185.64 147.48 185.72 148.08C185.8 148.67 186.35 149.09 186.94 149.02Z" fill="#407BFF"/>
<path opacity="0.4" d="M186.94 149.02L187.74 148.91C188.34 148.83 188.76 148.29 188.68 147.69C188.6 147.09 188.06 146.67 187.46 146.75L186.66 146.86C186.06 146.94 185.64 147.48 185.72 148.08C185.8 148.67 186.35 149.09 186.94 149.02Z" fill="black"/>
<path d="M176.13 158.9L182.07 164.73L179.69 171.89L171.42 162.79L176.13 158.9Z" fill="#407BFF"/>
<path d="M184.72 160.12L183.76 164.61L186.83 170.96L188.75 162.71L184.72 160.12Z" fill="#FFB459"/>
<path d="M177.4 163.96L173.95 151.33C173.95 151.33 175.62 148.18 175.26 147.53C174.9 146.87 173.1 138.39 171.82 137.47C170.54 136.55 165.28 138.12 164.74 138.98C164.21 139.84 169.78 151.33 169.78 151.33L171.81 165.01L177.4 163.96Z" fill="#E4897B"/>
<path d="M156.96 166.08C147.47 175.8 166.5 197.82 177.4 196.88C188.3 195.94 177.13 156.02 177.13 156.02L170.15 157.17C170.15 157.17 172.6 174.45 171.83 175.8C171.05 177.16 160.15 162.82 156.96 166.08Z" fill="#FFB459"/>
<path opacity="0.2" d="M156.96 166.08C147.47 175.8 166.5 197.82 177.4 196.88C188.3 195.94 177.13 156.02 177.13 156.02L170.15 157.17C170.15 157.17 172.6 174.45 171.83 175.8C171.05 177.16 160.15 162.82 156.96 166.08Z" fill="#FFB459"/>
<path d="M177.7 154.74L178.73 158.04L169 158.9V156.02L177.7 154.74Z" fill="#333333"/>
<path opacity="0.6" d="M192.44 189.87H196.38C196.82 189.87 197.17 189.52 197.17 189.08V181.64C197.17 181.2 196.82 180.85 196.38 180.85H192.44C192 180.85 191.65 181.2 191.65 181.64V189.08C191.65 189.52 192.01 189.87 192.44 189.87Z" fill="white"/>
<path opacity="0.2" d="M192.37 181.45H196.85V187.58H192.37V181.45Z" fill="black"/>
<path d="M194.01 178.68H195V182.29H194.01V178.68Z" fill="#263238"/>
<path d="M276.29 334.22C275.29 333.76 274.21 333.49 273.12 333.41C273.12 333.41 269.32 331.17 265.56 322.49L261.33 322.47C259.86 322.49 258.57 323.42 258.08 324.8C258.01 324.99 257.97 325.19 257.96 325.39C258 326.41 258.11 327.43 258.29 328.44C258.67 331.61 260.76 338.4 260.76 338.4L261.48 338.22L260.18 331.9C259.75 329.75 262 331.83 263.05 333.99C264.1 336.15 265.7 338.33 270.38 337.26C275.81 335.98 278 335.2 276.29 334.22Z" fill="#FFB459"/>
<path d="M264.79 320.22C264.79 320.22 270.08 331.28 273.12 333.42C273.12 333.42 269.04 335.85 264.79 330.44C259.3 323.44 257.95 325.39 257.95 325.39C257.95 325.39 258.18 322.99 258.61 321.82C259.44 319.55 264.79 320.22 264.79 320.22Z" fill="#E4897B"/>
<path d="M218.07 360.57C217.21 359.89 216.23 359.37 215.18 359.03C215.18 359.03 212.02 355.96 210.42 346.63L206.31 345.6C204.88 345.27 203.4 345.86 202.6 347.09C202.49 347.26 202.4 347.44 202.34 347.63C202.14 348.63 202 349.65 201.93 350.67C201.55 353.84 201.97 360.93 201.97 360.93L202.71 360.92L202.94 354.47C203.03 352.28 204.73 354.83 205.23 357.18C205.73 359.53 206.77 362.03 211.57 362.1C217.18 362.17 219.5 361.93 218.07 360.57Z" fill="#FFB459"/>
<path d="M210.22 344.24C210.22 344.24 212.73 356.24 215.18 359.03C215.18 359.03 210.64 360.43 207.8 354.16C204.12 346.05 202.35 347.64 202.35 347.64C202.35 347.64 203.14 345.37 203.84 344.33C205.18 342.33 210.22 344.24 210.22 344.24Z" fill="#E4897B"/>
<path d="M117.24 127.27H152.16C154.96 127.27 157.23 125 157.23 122.2V107.26C157.23 104.46 154.96 102.19 152.16 102.19H117.24C114.44 102.19 112.17 104.46 112.17 107.26V122.2C112.17 125 114.44 127.27 117.24 127.27Z" fill="#333333"/>
<path d="M145.15 124.41L155.67 138.71L138.7 125.37L145.15 124.41Z" fill="#333333"/>
<path d="M144.76 114.73C144.76 115.54 145.42 116.21 146.24 116.21C147.05 116.21 147.72 115.55 147.72 114.73C147.72 113.92 147.06 113.25 146.24 113.25C145.42 113.26 144.76 113.92 144.76 114.73Z" fill="white"/>
<path d="M137.071 114.73C137.071 115.54 137.731 116.21 138.551 116.21C139.371 116.21 140.031 115.55 140.031 114.73C140.031 113.92 139.371 113.25 138.551 113.25C137.731 113.25 137.071 113.92 137.071 114.73Z" fill="white"/>
<path d="M129.38 114.73C129.38 115.54 130.04 116.21 130.86 116.21C131.67 116.21 132.34 115.55 132.34 114.73C132.34 113.92 131.68 113.25 130.86 113.25C130.04 113.26 129.38 113.92 129.38 114.73Z" fill="white"/>
<path d="M121.69 114.73C121.69 115.54 122.35 116.21 123.17 116.21C123.98 116.21 124.65 115.55 124.65 114.73C124.65 113.92 123.99 113.25 123.17 113.25C122.35 113.26 121.69 113.92 121.69 114.73Z" fill="white"/>
<path d="M257.57 107.55L282.47 94.14C283.14 93.78 283.4 92.94 283.03 92.26L275.09 77.52C274.73 76.85 273.89 76.59 273.21 76.96L248.31 90.37C247.64 90.73 247.38 91.57 247.75 92.25L255.69 106.99C256.06 107.67 256.9 107.92 257.57 107.55Z" fill="#FF0000"/>
<path opacity="0.7" d="M257.57 107.55L282.47 94.14C283.14 93.78 283.4 92.94 283.03 92.26L275.09 77.52C274.73 76.85 273.89 76.59 273.21 76.96L248.31 90.37C247.64 90.73 247.38 91.57 247.75 92.25L255.69 106.99C256.06 107.67 256.9 107.92 257.57 107.55Z" fill="#FF0000"/>
<path opacity="0.2" d="M275.75 78.74L267.96 93.29C267.35 94.42 266.12 95.08 264.85 94.95L248.64 93.35L265.15 95.78C266.63 96 268.08 95.22 268.71 93.86L275.75 78.74Z" fill="black"/>
<path d="M294.66 76.0301C294.4 70.4701 290.28 59.2601 285.27 55.8301C280.26 52.4001 283.56 57.1501 283.56 57.1501C283.56 57.1501 278.81 52.5301 276.31 52.6701C273.8 52.8001 276.31 55.7001 276.31 55.7001C276.31 55.7001 271.17 52.5301 268.79 52.6601C266.42 52.7901 268.79 55.5601 268.79 55.5601C268.79 55.5601 264.57 52.5301 262.86 53.9801C261.15 55.4301 284.75 70.9901 287.39 77.3201C290.01 83.6501 294.93 81.6601 294.66 76.0301Z" fill="#FF0000"/>
<path opacity="0.4" d="M294.66 76.0301C294.4 70.4701 290.28 59.2601 285.27 55.8301C280.26 52.4001 283.56 57.1501 283.56 57.1501C283.56 57.1501 278.81 52.5301 276.31 52.6701C273.8 52.8001 276.31 55.7001 276.31 55.7001C276.31 55.7001 271.17 52.5301 268.79 52.6601C266.42 52.7901 268.79 55.5601 268.79 55.5601C268.79 55.5601 264.57 52.5301 262.86 53.9801C261.15 55.4301 284.75 70.9901 287.39 77.3201C290.01 83.6501 294.93 81.6601 294.66 76.0301Z" fill="#FF0000"/>
<path d="M274.38 75.2102L271.23 77.2302C271 77.3802 271.12 77.7302 271.39 77.7102L274.7 77.4502L274.42 79.9902C274.39 80.2702 274.73 80.4202 274.92 80.2102L276.83 78.0502L274.38 75.2102Z" fill="#407BFF"/>
<path opacity="0.3" d="M274.38 75.2102L271.23 77.2302C271 77.3802 271.12 77.7302 271.39 77.7102L274.7 77.4502L274.42 79.9902C274.39 80.2702 274.73 80.4202 274.92 80.2102L276.83 78.0502L274.38 75.2102Z" fill="white"/>
<path d="M318.63 62.69C318.63 62.69 314.28 59.66 307.68 61.63C307.68 61.63 305.78 70.33 300.6 73.23C297.75 74.82 290.78 74.69 285.26 72.9C278.71 70.78 275.5 70.78 274.31 73.23C273.19 75.55 274.44 78.24 279.45 79.43C284.46 80.62 288.42 89.32 297.52 89.45C306.62 89.58 311.41 80.46 309.12 72.44C309.13 72.45 311.9 66.47 318.63 62.69Z" fill="#FF0000"/>
<path opacity="0.5" d="M318.63 62.69C318.63 62.69 314.28 59.66 307.68 61.63C307.68 61.63 305.78 70.33 300.6 73.23C297.75 74.82 290.78 74.69 285.26 72.9C278.71 70.78 275.5 70.78 274.31 73.23C273.19 75.55 274.44 78.24 279.45 79.43C284.46 80.62 288.42 89.32 297.52 89.45C306.62 89.58 311.41 80.46 309.12 72.44C309.13 72.45 311.9 66.47 318.63 62.69Z" fill="#FF0000"/>
<path d="M276.82 74.8902C276.82 75.1402 277.02 75.3302 277.26 75.3302C277.51 75.3302 277.71 75.1302 277.71 74.8902C277.71 74.6402 277.51 74.4402 277.26 74.4402C277.02 74.4402 276.82 74.6402 276.82 74.8902Z" fill="#263238"/>
<path d="M299.64 82.2101C305.01 83.6801 316.95 83.2201 321.76 79.5101C326.57 75.8001 321.03 77.4701 321.03 77.4701C321.03 77.4701 326.89 74.3801 327.53 71.9601C328.18 69.5401 324.65 71.0201 324.65 71.0201C324.65 71.0201 329.25 67.1101 329.86 64.8101C330.46 62.5101 327.1 63.9101 327.1 63.9101C327.1 63.9101 331.29 60.8301 330.44 58.7501C329.59 56.6701 307.5 74.3201 300.67 74.8801C293.82 75.4401 294.2 80.7301 299.64 82.2101Z" fill="#FF0000"/>
<path opacity="0.4" d="M299.64 82.2101C305.01 83.6801 316.95 83.2201 321.76 79.5101C326.57 75.8001 321.03 77.4701 321.03 77.4701C321.03 77.4701 326.89 74.3801 327.53 71.9601C328.18 69.5401 324.65 71.0201 324.65 71.0201C324.65 71.0201 329.25 67.1101 329.86 64.8101C330.46 62.5101 327.1 63.9101 327.1 63.9101C327.1 63.9101 331.29 60.8301 330.44 58.7501C329.59 56.6701 307.5 74.3201 300.67 74.8801C293.82 75.4401 294.2 80.7301 299.64 82.2101Z" fill="#FF0000"/>
<path d="M334.84 57.5101C335.78 57.1801 336.73 56.8601 337.69 56.5701" stroke="#FF0000" stroke-width="0.75" stroke-linecap="round" stroke-linejoin="round"/>
<path d="M343.53 55.0801C347.03 54.3501 350.6 53.8701 354.14 53.6201C363.86 52.9401 379.11 51.9801 385.06 61.6701C390.49 70.5001 381.15 85.5601 377.84 93.7601C373.78 103.8 368.95 116.21 373.75 126.84C383.61 148.68 425.8 137.34 440.03 117.22" stroke="#FF0000" stroke-width="0.75" stroke-linecap="round" stroke-linejoin="round" stroke-dasharray="6.03 6.03"/>
<path d="M441.64 114.69C442.14 113.81 442.59 112.91 442.97 112" stroke="#FF0000" stroke-width="0.75" stroke-linecap="round" stroke-linejoin="round"/>
<path d="M320.19 194.09H358.15V201.87H320.19V194.09Z" fill="white"/>
<path opacity="0.1" d="M320.19 194.09H358.15V201.87H320.19V194.09Z" fill="black"/>
<path opacity="0.1" d="M342.16 194.09H358.15V201.87H342.16V194.09Z" fill="black"/>
<path opacity="0.1" d="M358.15 195.21H324.36L358.15 196.17V195.21Z" fill="black"/>
<path opacity="0.1" d="M320.19 196.56L349.48 197.29H320.19V196.56Z" fill="black"/>
<path opacity="0.1" d="M356.6 198.74L342.16 198.15L320.93 198.74L342.16 199.07L356.6 198.74Z" fill="black"/>
<path opacity="0.1" d="M358.15 200.39H333.13L358.15 200.98V200.39Z" fill="black"/>
<path opacity="0.1" d="M320.25 200.98L336.95 201.29H320.19L320.25 200.98Z" fill="black"/>
<path d="M325.47 186.31H363.43V194.09H325.47V186.31Z" fill="white"/>
<path opacity="0.1" d="M325.47 186.31H363.43V194.09H325.47V186.31Z" fill="black"/>
<path opacity="0.1" d="M347.44 186.31H363.43V194.09H347.44V186.31Z" fill="black"/>
<path opacity="0.1" d="M363.43 187.43H329.64L363.43 188.38V187.43Z" fill="black"/>
<path opacity="0.1" d="M325.47 188.78L354.76 189.51H325.47V188.78Z" fill="black"/>
<path opacity="0.1" d="M361.89 190.96L347.45 190.36L326.22 190.96L347.45 191.29L361.89 190.96Z" fill="black"/>
<path opacity="0.1" d="M363.43 192.6H338.41L363.43 193.2V192.6Z" fill="black"/>
<path opacity="0.1" d="M325.53 193.2L342.24 193.51H325.47L325.53 193.2Z" fill="black"/>
<path d="M321.14 178.52H359.1V186.3H321.14V178.52Z" fill="white"/>
<path opacity="0.1" d="M321.14 178.52H359.1V186.3H321.14V178.52Z" fill="black"/>
<path opacity="0.1" d="M343.11 178.52H359.1V186.3H343.11V178.52Z" fill="black"/>
<path opacity="0.1" d="M359.1 179.64H325.31L359.1 180.6V179.64Z" fill="black"/>
<path opacity="0.1" d="M321.14 180.99L350.43 181.72H321.14V180.99Z" fill="black"/>
<path opacity="0.1" d="M357.55 183.17L343.11 182.58L321.88 183.17L343.11 183.5L357.55 183.17Z" fill="black"/>
<path opacity="0.1" d="M359.1 184.82H334.08L359.1 185.41V184.82Z" fill="black"/>
<path opacity="0.1" d="M321.19 185.41L337.9 185.72H321.14L321.19 185.41Z" fill="black"/>
<path d="M295.85 201.71L294.87 197.98H254.32L235.64 199.85L234.93 201.71H295.85Z" fill="#263238"/>
<path opacity="0.4" d="M254.32 197.98V201.71H295.85L294.87 197.98H254.32Z" fill="black"/>
<path d="M262.46 180.13C262.28 182.1 263.72 183.7 265.68 183.7H327.8C329.77 183.7 331.51 182.1 331.69 180.13L335.38 140.36C335.42 139.95 335.39 139.56 335.3 139.2C334.95 137.8 333.72 136.79 332.16 136.79H270.04C268.07 136.79 266.33 138.39 266.15 140.36L262.46 180.13Z" fill="#263238"/>
<path opacity="0.4" d="M265.9 183.7H327.8C329.77 183.7 331.51 182.1 331.69 180.13L335.38 140.36C335.42 139.95 335.39 139.56 335.3 139.2H273.4C271.44 139.2 269.7 140.8 269.51 142.77L265.82 182.54C265.78 182.95 265.81 183.34 265.9 183.7Z" fill="black"/>
<path d="M308.58 159.31H295.73L299.15 196.1L278.83 199.15V201.71H321.63V199.15L312.86 196.1L308.58 159.31Z" fill="#263238"/>
<path opacity="0.1" d="M295.73 159.31L305.25 201.13L312.86 200.9L308.58 159.31H295.73Z" fill="white"/>
<path d="M295.79 362.12H301.91L312.92 208.88H304.79L295.79 362.12Z" fill="#263238"/>
<path opacity="0.4" d="M295.78 362.12H301.91L312.38 216.49L312.92 209.12H304.79L304.35 216.49L295.78 362.12Z" fill="white"/>
<path opacity="0.2" d="M304.35 216.12H312.38L312.92 209.12H304.79L304.35 216.12Z" fill="black"/>
<path d="M250.83 362.12H256.95L257.95 208.88H249.83L250.83 362.12Z" fill="#263238"/>
<path opacity="0.5" d="M249.82 209.12L249.98 233.85L250.82 362.12H256.95L257.79 233.85L257.95 209.12H249.82Z" fill="white"/>
<path opacity="0.2" d="M249.82 209.12L249.98 234.12H257.79L257.95 209.12H249.82Z" fill="black"/>
<path d="M185.79 362.12H191.91L202.92 208.88H194.79L185.79 362.12Z" fill="#263238"/>
<path opacity="0.5" d="M185.78 362.12H191.91L202.38 216.49L202.92 209.12H194.79L194.35 216.49L185.78 362.12Z" fill="white"/>
<path opacity="0.2" d="M194.35 216.12H202.38L202.92 209.12H194.79L194.35 216.12Z" fill="black"/>
<path d="M365.87 362.12H371.99L362.99 208.88H354.86L365.87 362.12Z" fill="#263238"/>
<path opacity="0.5" d="M354.86 209.12L355.4 216.49L365.87 362.12H371.99L363.43 216.49L362.99 209.12H354.86Z" fill="white"/>
<path opacity="0.2" d="M362.99 209.12H354.86L355.4 216.12H363.43L362.99 209.12Z" fill="black"/>
<path d="M190.51 212.71H367.27C368.46 212.71 369.43 211.74 369.43 210.55V205.04H188.35V210.55C188.35 211.74 189.32 212.71 190.51 212.71Z" fill="#FFB459"/>
<path opacity="0.6" d="M190.51 212.71H367.27C368.46 212.71 369.43 211.74 369.43 210.55V205.04H188.35V210.55C188.35 211.74 189.32 212.71 190.51 212.71Z" fill="#FFD6A4"/>
<path opacity="0.2" d="M188.35 205.04H369.43V208.88H188.35V205.04Z" fill="black"/>
<path d="M184.55 206.04H373.23C374.42 206.04 375.39 205.07 375.39 203.88C375.39 202.69 374.42 201.72 373.23 201.72H184.55C183.36 201.72 182.39 202.69 182.39 203.88C182.39 205.07 183.36 206.04 184.55 206.04Z" fill="#FFEDD7"/>
<path opacity="0.6" d="M184.55 206.04H373.23C374.42 206.04 375.39 205.07 375.39 203.88C375.39 202.69 374.42 201.72 373.23 201.72H184.55C183.36 201.72 182.39 202.69 182.39 203.88C182.39 205.07 183.36 206.04 184.55 206.04Z" fill="#FFB459"/>
<path d="M229.19 195.05L226.87 191.57C226.41 190.88 225.63 190.46 224.79 190.46H221.85C221.6 190.46 221.36 190.5 221.13 190.57L210.64 193.75C210.04 193.93 209.54 194.33 209.22 194.86L207.72 197.39L229.19 195.05Z" fill="#CCA06B"/>
<path opacity="0.2" d="M207.71 197.39L222.98 195.73L229.19 195.05L226.87 191.57C226.41 190.88 225.63 190.46 224.79 190.46H221.85C221.6 190.46 221.36 190.5 221.12 190.57L220.89 190.64L210.64 193.75C210.04 193.93 209.53 194.32 209.21 194.86L207.71 197.39Z" fill="#FFCB8B"/>
<path opacity="0.2" d="M207.71 197.39L222.98 195.73L220.89 190.64L210.64 193.75C210.04 193.93 209.53 194.32 209.21 194.86L207.71 197.39Z" fill="#FFB459"/>
<path d="M200.45 201.38V201.71H213.76H232.87L231.67 197.02C231.2 195.26 229.6 194.03 227.78 194.03H213.4C212.92 194.03 212.45 194.11 212 194.28L210.2 194.95L203.06 197.61C201.49 198.2 200.45 199.7 200.45 201.38Z" fill="#FFCB8B"/>
<path opacity="0.2" d="M200.45 201.38V201.71H213.76L213.05 196.64C212.86 195.3 211.47 194.48 210.2 194.95L203.06 197.61C201.49 198.2 200.45 199.7 200.45 201.38Z" fill="#CC9047"/>
<path d="M211.69 198.27L207.46 185.56C207.28 185.01 206.65 184.76 206.13 185.02C205.74 185.22 205.54 185.67 205.65 186.1L209.22 199.67C209.22 199.66 211.59 200.62 211.69 198.27Z" fill="#263238"/>
<path opacity="0.2" d="M229.19 200.66H231.07L230.71 198.81H228.83L229.19 200.66Z" fill="black"/>
<path opacity="0.2" d="M226.39 200.59H228.27L227.91 198.74H226.03L226.39 200.59Z" fill="black"/>
</svg>
