<svg width="153" height="139" viewBox="0 0 153 139" fill="none" xmlns="http://www.w3.org/2000/svg">
<path d="M139.841 78.4375H90.7784C85.357 78.4375 80.9659 82.437 80.9659 87.375V96.3125V103.44C87.2214 105.451 92.422 109.294 95.881 114.188H110.403L121.173 125.94C122.129 126.99 123.528 127.594 125.024 127.594C127.796 127.594 130.028 125.56 130.028 123.036V114.188H139.841C145.262 114.188 149.653 110.188 149.653 105.25V96.3125V87.375C149.653 82.437 145.262 78.4375 139.841 78.4375Z" fill="#F0D0B4"/>
<path d="M149.653 24.8125V47.1562C149.653 52.0942 145.262 56.0938 139.841 56.0938H120.216L109.447 67.8466C108.49 68.8967 107.092 69.5 105.595 69.5C102.823 69.5 100.591 67.4667 100.591 64.9419V56.0938H80.9659C80.9659 51.0664 79.1506 46.4412 76.0597 42.7098V24.8125C76.0597 19.8745 80.4508 15.875 85.8722 15.875H100.836C101.965 20.9694 106.92 24.8125 112.857 24.8125C100.665 24.8125 90.7784 33.817 90.7784 44.9219V47.1562H134.935V44.9219C134.935 39.3806 132.457 34.3309 128.458 30.7113C124.484 27.0692 118.94 24.8125 112.857 24.8125C118.793 24.8125 123.748 20.9694 124.877 15.875H139.841C145.262 15.875 149.653 19.8745 149.653 24.8125Z" fill="#E6E9ED"/>
<path d="M134.935 44.9219V47.1562H90.7784V44.9219C90.7784 33.817 100.665 24.8125 112.857 24.8125C118.94 24.8125 124.484 27.0692 128.458 30.7113C132.457 34.3309 134.935 39.3806 134.935 44.9219Z" fill="#FF826E"/>
<path d="M125.122 13.6406C125.122 14.4003 125.049 15.16 124.877 15.875C123.748 20.9694 118.793 24.8125 112.857 24.8125C106.92 24.8125 101.965 20.9694 100.836 15.875C100.665 15.16 100.591 14.4003 100.591 13.6406C100.591 7.47375 106.086 2.46875 112.857 2.46875C119.627 2.46875 125.122 7.47375 125.122 13.6406Z" fill="#F0D0B4"/>
<path d="M80.9659 103.44C87.2214 105.451 92.422 109.294 95.8809 114.187C98.8738 118.388 100.591 123.415 100.591 128.711V136.531H80.9659H53.9816L61.0466 119.058L68.5041 100.602L77.8995 102.613C78.9544 102.837 79.9602 103.105 80.9659 103.44Z" fill="#B4DD7F"/>
<path d="M76.0597 42.7098C79.1506 46.4413 80.9659 51.0664 80.9659 56.0938C80.9659 63.7577 77.1145 70.5725 71.1044 75.0859C71.1289 74.7284 71.1534 74.3486 71.1534 73.9688V71.7344C71.1534 66.7964 66.7623 62.7969 61.3409 62.7969H46.6222L40.6856 59.1995C39.7534 58.6186 38.6741 58.3281 37.5456 58.3281C34.4302 58.3281 31.9034 60.6295 31.9034 63.4672V73.9688C31.9034 74.3486 31.928 74.7284 31.9525 75.0859C28.9352 72.8292 26.482 70.0139 24.7649 66.7741C23.0477 63.5566 22.0909 59.9369 22.0909 56.0938C22.0909 49.5917 27.1199 44.0058 34.1113 42.7322L34.3566 42.6875C38.993 37.0569 46.2542 33.75 53.9816 33.75H56.4347C63.2053 33.75 69.3381 36.2525 73.7783 40.2967C74.6123 41.0564 75.3728 41.8608 76.0597 42.7098Z" fill="#656D78"/>
<path d="M71.1044 75.0859C70.6383 82.1019 65.7075 88.023 58.8878 90.5478C56.6064 91.3745 54.1288 91.8438 51.5284 91.8438C48.9281 91.8438 46.4505 91.3745 44.1691 90.5478C41.7159 89.6317 39.4836 88.2911 37.6438 86.6153C34.3811 83.6213 32.2469 79.577 31.9525 75.0859C31.928 74.7284 31.9034 74.3486 31.9034 73.9688V63.4672C31.9034 60.6295 34.4302 58.3281 37.5456 58.3281C38.6741 58.3281 39.7534 58.6186 40.6856 59.1995L46.6222 62.7969H61.3409C66.7623 62.7969 71.1534 66.7964 71.1534 71.7344V73.9688C71.1534 74.3486 71.1289 74.7284 71.1044 75.0859Z" fill="#F0D0B4"/>
<path d="M68.5041 100.602L61.0466 119.058L51.5284 107.484L58.8878 98.5469L68.5041 100.602Z" fill="#FCD770"/>
<path d="M51.5285 107.484L61.0466 119.058L53.9816 136.531H49.0754L42.0104 119.058L51.5285 107.484Z" fill="#FFEAA7"/>
<path d="M58.8878 90.5479V98.5469L51.5284 107.484L44.1691 98.5469V90.5479C46.4505 91.3746 48.9281 91.8438 51.5284 91.8438C54.1288 91.8438 56.6064 91.3746 58.8878 90.5479Z" fill="#F0D0B4"/>
<path d="M44.169 98.5469L51.5284 107.484L42.0103 119.058L34.5528 100.602L44.169 98.5469Z" fill="#FCD770"/>
<path d="M22.0909 136.531H2.46595V128.711C2.46595 116.288 11.8614 105.473 25.1574 102.613L34.5528 100.602L42.0103 119.058L49.0753 136.531H22.0909Z" fill="#B4DD7F"/>
<path d="M49.0753 116.422H53.9816V120.891H49.0753V116.422Z" fill="black"/>
<path d="M49.0753 125.359H53.9816V129.828H49.0753V125.359Z" fill="black"/>
<path d="M105.603 71.7344C107.825 71.7344 109.918 70.8429 111.338 69.2877L121.366 58.3281H139.841C146.604 58.3281 152.107 53.3164 152.107 47.1562V24.8125C152.107 18.6523 146.604 13.6406 139.841 13.6406H127.575C127.575 6.24708 120.974 0.234375 112.857 0.234375C104.739 0.234375 98.1378 6.24708 98.1378 13.6406H85.8722C79.1089 13.6406 73.6066 18.6523 73.6066 24.8125V37.1485C68.9383 33.6316 62.9527 31.5156 56.4347 31.5156H53.9816C45.847 31.5156 38.0608 34.923 32.9681 40.6743C25.204 42.3814 19.6378 48.7672 19.6378 56.0938C19.6378 63.8068 23.2684 71.0373 29.5828 76.1339C30.4046 83.0828 35.1318 88.9636 41.716 91.9555V96.7773L24.598 100.446C10.1222 103.547 0.0128212 115.175 0.0128212 128.72V138.766H103.044V128.72C103.044 124.343 101.975 120.173 100.059 116.422H109.253L119.281 127.379C120.702 128.937 122.794 129.828 125.017 129.828C129.133 129.828 132.482 126.778 132.482 123.029V116.422H139.841C146.604 116.422 152.107 111.41 152.107 105.25V87.375C152.107 81.2148 146.604 76.2031 139.841 76.2031H90.7785C84.0152 76.2031 78.5128 81.2148 78.5128 87.375V100.459C78.4932 100.455 78.476 100.448 78.4589 100.446L61.341 96.7773V91.9555C67.9251 88.9636 72.6523 83.0805 73.4741 76.1339C79.1727 71.5333 82.6586 65.1944 83.2842 58.3281H98.1378V64.9352C98.1378 68.6845 101.486 71.7344 105.603 71.7344ZM112.857 4.70312C118.268 4.70312 122.669 8.71159 122.669 13.6406C122.669 18.5697 118.268 22.5781 112.857 22.5781C107.445 22.5781 103.044 18.5697 103.044 13.6406C103.044 8.71159 107.445 4.70312 112.857 4.70312ZM43.1707 101.056L48.462 107.484L42.7487 114.422L37.8081 102.205L43.1707 101.056ZM51.5285 111.207L58.2893 119.416L52.2717 134.297H50.7876L44.7701 119.416L51.5285 111.207ZM4.91907 128.72C4.91907 117.258 13.4731 107.42 25.724 104.794L32.9926 103.237L45.5575 134.297H24.5441V120.891H19.6378V134.297H4.91907V128.72ZM83.4191 87.375C83.4191 83.6793 86.721 80.6719 90.7785 80.6719H139.841C143.898 80.6719 147.2 83.6793 147.2 87.375V105.25C147.2 108.946 143.898 111.953 139.841 111.953H127.575V123.029C127.575 124.314 126.427 125.359 125.017 125.359C124.254 125.359 123.537 125.053 123.052 124.521L111.554 111.953H97.2056C93.7983 107.556 89.0662 104.039 83.4191 101.91V87.375ZM98.1378 128.72V134.297H83.4191V120.891H78.5128V134.297H57.4994L70.0618 103.237L77.3304 104.794C89.5838 107.422 98.1378 117.26 98.1378 128.72ZM65.2512 102.207L60.3106 114.424L54.5949 107.484L59.8862 101.056L65.2512 102.207ZM56.4347 97.8028L51.5285 103.762L46.6222 97.8028V93.5598C48.202 93.8882 49.8407 94.0781 51.5285 94.0781C53.2162 94.0781 54.8549 93.8882 56.4347 93.5598V97.8028ZM68.7003 73.9688C68.7003 82.5934 60.9951 89.6094 51.5285 89.6094C42.0618 89.6094 34.3566 82.5934 34.3566 73.9688V63.4739C34.3566 61.8674 35.7892 60.5625 37.553 60.5625C38.1859 60.5625 38.7992 60.7323 39.3266 61.0518L45.8789 65.0312H61.341C65.3984 65.0312 68.7003 68.0387 68.7003 71.7344V73.9688ZM73.3882 69.7592C72.3555 64.5419 67.3609 60.5625 61.341 60.5625H47.3655L42.0471 57.3338C40.7126 56.5228 39.1573 56.0938 37.553 56.0938C33.0834 56.0938 29.4503 59.4029 29.4503 63.4739V69.471C26.3005 65.6457 24.5441 60.9848 24.5441 56.0938C24.5441 50.6821 28.7733 45.9832 34.6019 44.9219L35.7598 44.7096L36.3191 44.0281C40.4673 38.9918 47.0711 35.9844 53.9816 35.9844H56.4347C68.6096 35.9844 78.5128 45.0068 78.5128 56.0938C78.5128 61.1055 76.6852 65.8826 73.3882 69.7592ZM83.294 53.8594C82.8573 49.4755 81.1499 45.4246 78.5128 42.006V24.8125C78.5128 21.1168 81.8147 18.1094 85.8722 18.1094H98.9964C99.9384 20.527 101.614 22.6228 103.79 24.1802C94.7427 27.4714 88.3253 35.5196 88.3253 44.9219V49.3906H137.388V44.9219C137.388 35.5196 130.97 27.4714 121.923 24.1802C124.099 22.6228 125.775 20.527 126.717 18.1094H139.841C143.898 18.1094 147.2 21.1168 147.2 24.8125V47.1562C147.2 50.8519 143.898 53.8594 139.841 53.8594H119.065L107.565 66.4277C107.082 66.9595 106.366 67.2656 105.603 67.2656C104.192 67.2656 103.044 66.2199 103.044 64.9352V53.8594H83.294ZM112.857 27.0469C123.677 27.0469 132.482 35.066 132.482 44.9219H93.2316C93.2316 35.066 102.036 27.0469 112.857 27.0469Z" fill="black"/>
<path d="M88.3253 85.1406H142.294V89.6094H88.3253V85.1406Z" fill="black"/>
<path d="M88.3253 94.0781H142.294V98.5469H88.3253V94.0781Z" fill="black"/>
<path d="M98.1378 103.016H132.482V107.484H98.1378V103.016Z" fill="black"/>
<path d="M137.388 103.016H142.294V107.484H137.388V103.016Z" fill="black"/>
</svg>
