<svg width="119" height="119" viewBox="0 0 119 119" fill="none" xmlns="http://www.w3.org/2000/svg">
<circle cx="59.5" cy="59.5" r="59.5" fill="#FF0000"/>
<g clip-path="url(#clip0)">
<path d="M65.2138 49.0578C64.7298 48.7146 64.0593 48.8283 63.716 49.3122L63.6951 49.3415C63.3518 49.8254 63.4657 50.4959 63.9495 50.8392C64.1382 50.9731 64.3552 51.0375 64.5703 51.0375C64.9066 51.0375 65.2378 50.88 65.4473 50.5848L65.4681 50.5555C65.8115 50.0717 65.6976 49.4012 65.2138 49.0578Z" fill="white"/>
<path d="M62.7665 52.1022C62.3903 51.6434 61.7135 51.5767 61.2548 51.953C59.7623 53.1772 58.0665 54.0486 56.2142 54.5432C55.641 54.6962 55.3004 55.2849 55.4534 55.8581C55.5817 56.3385 56.0159 56.6555 56.4906 56.6555C56.5823 56.6555 56.6756 56.6437 56.7684 56.6188C58.9187 56.0446 60.8864 55.0337 62.6172 53.614C63.076 53.2378 63.1428 52.5608 62.7665 52.1022Z" fill="white"/>
<path d="M83.7842 56.3347C82.0073 56.3347 80.5616 57.7804 80.5616 59.5572V60.0944C80.5616 64.5994 77.2815 68.3502 72.9846 69.0903C73.5458 68.2626 73.874 67.2647 73.874 66.1916V65.4454C73.874 62.5902 71.551 60.2673 68.6958 60.2673C65.8405 60.2673 63.5176 62.5902 63.5176 65.4454V66.1916C63.5176 67.2375 63.8302 68.2111 64.3655 69.0261C60.2374 68.1511 57.1299 64.4794 57.1299 60.0944V59.5572C57.1299 57.7804 55.6842 56.3347 53.9072 56.3347C52.1302 56.3347 50.6846 57.7804 50.6846 59.5572V60.0944C50.6846 62.2748 51.1282 64.3834 51.9841 66.3315H44.871H44.6748V55.5132C44.6748 55.0337 44.3571 54.6122 43.896 54.4805C38.1609 52.8402 34.1553 47.5303 34.1553 41.5674V41.0303C34.1553 40.4379 34.6372 39.9561 35.2296 39.9561C35.8219 39.9561 36.3038 40.4379 36.3038 41.0303V41.5674C36.3038 47.7868 41.3637 52.8467 47.5831 52.8467H52.753C58.9724 52.8467 64.0323 47.7868 64.0323 41.5674V41.0303C64.0323 40.4379 64.5142 39.9561 65.1065 39.9561C65.6988 39.9561 66.1807 40.4379 66.1807 41.0303V41.5674C66.1807 43.2186 65.8832 44.8315 65.2965 46.3611C65.084 46.915 65.3609 47.5363 65.9148 47.7488C66.4685 47.9613 67.09 47.6843 67.3025 47.1304C67.9838 45.3543 68.3291 43.4826 68.3291 41.5674V41.0303C68.3291 39.2533 66.8834 37.8076 65.1065 37.8076C63.3295 37.8076 61.8838 39.2533 61.8838 41.0303V41.5674C61.8838 46.0722 58.6037 49.8231 54.3069 50.5632C54.8681 49.7355 55.1963 48.7378 55.1963 47.6648V46.9186C55.1963 44.0633 52.8733 41.7403 50.018 41.7403C47.1627 41.7403 44.8398 44.0633 44.8398 46.9186V47.6648C44.8398 48.7105 45.1524 49.6842 45.6877 50.4991C41.5596 49.624 38.4522 45.9523 38.4522 41.5674V41.0303C38.4522 39.2533 37.0065 37.8076 35.2296 37.8076C33.4526 37.8076 32.0069 39.2533 32.0069 41.0303V41.5674C32.0069 45.0163 33.1157 48.2864 35.2133 51.0241C37.0765 53.4555 39.6508 55.3075 42.5265 56.3004V67.4056C42.5265 67.9988 43.0074 68.4798 43.6007 68.4798H43.7969V85.9326C43.7969 86.5258 44.2778 87.0068 44.8711 87.0068C45.4644 87.0068 45.9453 86.5258 45.9453 85.9326V68.4798H53.1383C53.3731 68.8449 53.6239 69.2023 53.8911 69.551C53.9622 69.6438 54.0362 69.734 54.1094 69.8251V85.9326C54.1094 86.5258 54.5903 87.0068 55.1836 87.0068C55.7769 87.0068 56.2578 86.5258 56.2578 85.9326V72.0204C57.7214 73.2471 59.4038 74.2056 61.2043 74.8273V85.9326C61.2043 86.5258 61.6852 87.0068 62.2785 87.0068C62.8718 87.0068 63.3527 86.5258 63.3527 85.9326V74.0402C63.3527 73.5606 63.035 73.1391 62.5739 73.0074C56.8386 71.3672 52.8331 66.0573 52.8331 60.0944V59.5572C52.8331 58.9649 53.315 58.4831 53.9073 58.4831C54.4996 58.4831 54.9815 58.9649 54.9815 59.5572V60.0944C54.9815 66.3138 60.0414 71.3737 66.2608 71.3737H71.4307C77.6501 71.3737 82.71 66.3138 82.71 60.0944V59.5572C82.71 58.9649 83.1919 58.4831 83.7842 58.4831C84.3766 58.4831 84.8585 58.9649 84.8585 59.5572V60.0944C84.8585 66.1674 80.7601 71.5032 74.8921 73.07C74.422 73.1955 74.095 73.6213 74.095 74.1078V81.8864C74.095 82.4795 74.5759 82.9606 75.1692 82.9606C75.7625 82.9606 76.2434 82.4795 76.2434 81.8864V74.9101C82.6215 72.838 87.0069 66.8608 87.0069 60.0944V59.5572C87.0069 57.7804 85.5612 56.3347 83.7842 56.3347ZM46.9883 46.9185C46.9883 45.2478 48.3474 43.8887 50.018 43.8887C51.6886 43.8887 53.0478 45.2478 53.0478 46.9185V47.6646C53.0478 49.3353 51.6887 50.6944 50.018 50.6944C48.3474 50.6944 46.9883 49.3353 46.9883 47.6646V46.9185ZM71.7256 66.1916C71.7256 67.8622 70.3665 69.2213 68.6958 69.2213C67.0251 69.2213 65.666 67.8622 65.666 66.1916V65.4454C65.666 63.7748 67.0251 62.4157 68.6958 62.4157C70.3664 62.4157 71.7256 63.7748 71.7256 65.4454V66.1916Z" fill="white"/>
<path d="M75.9285 85.1731C75.7287 84.9732 75.4515 84.8584 75.169 84.8584C74.8865 84.8584 74.6093 84.9732 74.4095 85.1731C74.2097 85.3729 74.0948 85.6501 74.0948 85.9326C74.0948 86.2151 74.2097 86.4923 74.4095 86.692C74.6093 86.8918 74.8865 87.0068 75.169 87.0068C75.4515 87.0068 75.7287 86.8919 75.9285 86.692C76.1283 86.4923 76.2432 86.2151 76.2432 85.9326C76.2432 85.6501 76.1283 85.3729 75.9285 85.1731Z" fill="white"/>
<path d="M50.018 72.1826C49.4247 72.1826 48.9438 72.6637 48.9438 73.2568V85.9326C48.9438 86.5258 49.4247 87.0068 50.018 87.0068C50.6113 87.0068 51.0922 86.5258 51.0922 85.9326V73.2568C51.0922 72.6637 50.6113 72.1826 50.018 72.1826Z" fill="white"/>
<path d="M82.0655 40.8154C81.4722 40.8154 80.9913 41.2965 80.9913 41.8896V43.2249C80.9913 43.8181 81.4722 44.2991 82.0655 44.2991C82.6588 44.2991 83.1397 43.8181 83.1397 43.2249V41.8896C83.1397 41.2965 82.6588 40.8154 82.0655 40.8154Z" fill="white"/>
<path d="M82.0655 47.2146C81.4722 47.2146 80.9913 47.6956 80.9913 48.2888V49.6241C80.9913 50.2173 81.4722 50.6983 82.0655 50.6983C82.6588 50.6983 83.1397 50.2173 83.1397 49.6241V48.2888C83.1397 47.6956 82.6588 47.2146 82.0655 47.2146Z" fill="white"/>
<path d="M85.9327 44.6826H84.5974C84.0041 44.6826 83.5232 45.1637 83.5232 45.7568C83.5232 46.35 84.0041 46.8311 84.5974 46.8311H85.9327C86.526 46.8311 87.0069 46.35 87.0069 45.7568C87.0069 45.1637 86.526 44.6826 85.9327 44.6826Z" fill="white"/>
<path d="M79.5336 44.6826H78.1983C77.605 44.6826 77.1241 45.1637 77.1241 45.7568C77.1241 46.35 77.605 46.8311 78.1983 46.8311H79.5336C80.1268 46.8311 80.6078 46.35 80.6078 45.7568C80.6078 45.1637 80.1268 44.6826 79.5336 44.6826Z" fill="white"/>
<path d="M55.626 32.0068C55.0327 32.0068 54.5518 32.4879 54.5518 33.0811V34.4163C54.5518 35.0095 55.0327 35.4905 55.626 35.4905C56.2193 35.4905 56.7003 35.0095 56.7003 34.4163V33.0811C56.7003 32.4879 56.2193 32.0068 55.626 32.0068Z" fill="white"/>
<path d="M55.626 38.406C55.0327 38.406 54.5518 38.887 54.5518 39.4802V40.8155C54.5518 41.4087 55.0327 41.8897 55.626 41.8897C56.2193 41.8897 56.7003 41.4087 56.7003 40.8155V39.4802C56.7003 38.887 56.2193 38.406 55.626 38.406Z" fill="white"/>
<path d="M59.4932 35.874H58.158C57.5647 35.874 57.0838 36.3551 57.0838 36.9482C57.0838 37.5414 57.5647 38.0225 58.158 38.0225H59.4932C60.0865 38.0225 60.5675 37.5414 60.5675 36.9482C60.5675 36.3551 60.0865 35.874 59.4932 35.874Z" fill="white"/>
<path d="M53.0941 35.874H51.7588C51.1656 35.874 50.6846 36.3551 50.6846 36.9482C50.6846 37.5414 51.1656 38.0225 51.7588 38.0225H53.0941C53.6874 38.0225 54.1683 37.5414 54.1683 36.9482C54.1683 36.3551 53.6874 35.874 53.0941 35.874Z" fill="white"/>
</g>
<defs>
<clipPath id="clip0">
<rect width="55" height="55" fill="white" transform="translate(32.0069 32.0068)"/>
</clipPath>
</defs>
</svg>
