<svg width="138" height="136" viewBox="0 0 138 136" fill="none" xmlns="http://www.w3.org/2000/svg">
<path d="M18.9024 29.3614C24.9173 29.3614 29.7933 24.556 29.7933 18.6283C29.7933 12.7005 24.9173 7.89514 18.9024 7.89514C12.8875 7.89514 8.01142 12.7005 8.01142 18.6283C8.01142 24.556 12.8875 29.3614 18.9024 29.3614Z" fill="#F6E266"/>
<path d="M24.0227 9.15491C24.8375 10.6594 25.3009 12.3764 25.3009 14.201C25.3009 20.1287 20.4248 24.9341 14.4099 24.9341C12.5588 24.9341 10.8162 24.4775 9.28962 23.6745C11.1222 27.058 14.7387 29.3615 18.9022 29.3615C24.917 29.3615 29.7931 24.5561 29.7931 18.6284C29.7934 14.525 27.456 10.9609 24.0227 9.15491Z" fill="#F1D333"/>
<path d="M68.9999 18.0917C73.511 18.0917 77.168 14.4877 77.168 10.042C77.168 5.59619 73.511 1.99219 68.9999 1.99219C64.4887 1.99219 60.8317 5.59619 60.8317 10.042C60.8317 14.4877 64.4887 18.0917 68.9999 18.0917Z" fill="#F6E266"/>
<path d="M72.8403 2.93701C73.4513 4.06539 73.799 5.35314 73.799 6.72164C73.799 11.1674 70.142 14.7714 65.6309 14.7714C64.2425 14.7714 62.9355 14.429 61.7906 13.8268C63.1649 16.3641 65.8772 18.0917 69 18.0917C73.5112 18.0917 77.1682 14.4877 77.1682 10.0419C77.1682 6.96442 75.4151 4.29143 72.8403 2.93701Z" fill="#F1D333"/>
<path d="M68.9999 134.008C73.511 134.008 77.168 130.404 77.168 125.958C77.168 121.512 73.511 117.908 68.9999 117.908C64.4887 117.908 60.8317 121.512 60.8317 125.958C60.8317 130.404 64.4887 134.008 68.9999 134.008Z" fill="#F6E266"/>
<path d="M72.8403 118.853C73.4513 119.981 73.799 121.269 73.799 122.638C73.799 127.083 70.142 130.687 65.6309 130.687C64.2425 130.687 62.9355 130.345 61.7906 129.743C63.1649 132.28 65.8775 134.008 69 134.008C73.5112 134.008 77.1682 130.404 77.1682 125.958C77.1682 122.881 75.4151 120.208 72.8403 118.853Z" fill="#F1D333"/>
<path d="M127.81 76.0497C132.321 76.0497 135.978 72.4457 135.978 68C135.978 63.5542 132.321 59.9502 127.81 59.9502C123.299 59.9502 119.642 63.5542 119.642 68C119.642 72.4457 123.299 76.0497 127.81 76.0497Z" fill="#F6E266"/>
<path d="M131.651 60.895C132.262 62.0234 132.609 63.3111 132.609 64.6796C132.609 69.1254 128.952 72.7294 124.441 72.7294C123.053 72.7294 121.746 72.387 120.601 71.7848C121.975 74.3224 124.688 76.05 127.81 76.05C132.322 76.05 135.979 72.446 135.979 68.0002C135.979 64.9224 134.226 62.2494 131.651 60.895Z" fill="#F1D333"/>
<path d="M10.1896 76.0497C14.7008 76.0497 18.3578 72.4457 18.3578 68C18.3578 63.5542 14.7008 59.9502 10.1896 59.9502C5.67849 59.9502 2.02148 63.5542 2.02148 68C2.02148 72.4457 5.67849 76.0497 10.1896 76.0497Z" fill="#F6E266"/>
<path d="M14.0297 60.895C14.6407 62.0234 14.9884 63.3111 14.9884 64.6796C14.9884 69.1254 11.3314 72.7294 6.82024 72.7294C5.43188 72.7294 4.12493 72.387 2.97996 71.7848C4.3543 74.3224 7.06686 76.05 10.1894 76.05C14.7005 76.05 18.3575 72.446 18.3575 68.0002C18.3578 64.9224 16.6048 62.2494 14.0297 60.895Z" fill="#F1D333"/>
<path d="M68.9999 68C76.5184 68 82.6134 61.9934 82.6134 54.5838C82.6134 47.1742 76.5184 41.1676 68.9999 41.1676C61.4813 41.1676 55.3864 47.1742 55.3864 54.5838C55.3864 61.9934 61.4813 68 68.9999 68Z" fill="#F1D0A5"/>
<path d="M75.7712 42.9468C76.9176 44.9127 77.5766 47.1896 77.5766 49.6198C77.5766 57.0294 71.4816 63.036 63.9631 63.036C61.4971 63.036 59.1867 62.3865 57.1919 61.2568C59.5409 65.285 63.9474 68 69.0001 68C76.5187 68 82.6136 61.9934 82.6136 54.5838C82.6136 49.6044 79.8587 45.2617 75.7712 42.9468Z" fill="#F1B986"/>
<path d="M46.1291 78.7328V90.5391H91.8705V78.7328C91.8705 72.8052 86.9944 68 80.9795 68H57.0198C51.0052 68 46.1291 72.8054 46.1291 78.7328Z" fill="#DD5790"/>
<path d="M80.9797 68H74.4451C80.46 68 85.3358 72.8054 85.3358 78.7328V90.5391H91.8703V78.7328C91.8706 72.8054 86.9945 68 80.9797 68Z" fill="#DA387D"/>
<path d="M119.098 29.3614C125.113 29.3614 129.989 24.556 129.989 18.6283C129.989 12.7005 125.113 7.89514 119.098 7.89514C113.083 7.89514 108.207 12.7005 108.207 18.6283C108.207 24.556 113.083 29.3614 119.098 29.3614Z" fill="#F6E266"/>
<path d="M124.218 9.15491C125.033 10.6594 125.496 12.3764 125.496 14.201C125.496 20.1287 120.62 24.9341 114.605 24.9341C112.754 24.9341 111.012 24.4775 109.485 23.6745C111.318 27.058 114.934 29.3615 119.098 29.3615C125.113 29.3615 129.989 24.5561 129.989 18.6284C129.988 14.525 127.651 10.9609 124.218 9.15491Z" fill="#F1D333"/>
<path d="M119.098 128.105C125.113 128.105 129.989 123.299 129.989 117.372C129.989 111.444 125.113 106.639 119.098 106.639C113.083 106.639 108.207 111.444 108.207 117.372C108.207 123.299 113.083 128.105 119.098 128.105Z" fill="#F6E266"/>
<path d="M124.218 107.898C125.033 109.403 125.496 111.12 125.496 112.944C125.496 118.872 120.62 123.677 114.605 123.677C112.754 123.677 111.012 123.221 109.485 122.418C111.318 125.801 114.934 128.105 119.098 128.105C125.113 128.105 129.989 123.299 129.989 117.371C129.988 113.268 127.651 109.704 124.218 107.898Z" fill="#F1D333"/>
<path d="M18.9024 128.105C24.9173 128.105 29.7933 123.299 29.7933 117.372C29.7933 111.444 24.9173 106.639 18.9024 106.639C12.8875 106.639 8.01142 111.444 8.01142 117.372C8.01142 123.299 12.8875 128.105 18.9024 128.105Z" fill="#F6E266"/>
<path d="M24.0227 107.898C24.8375 109.403 25.3009 111.12 25.3009 112.944C25.3009 118.872 20.4248 123.677 14.4099 123.677C12.5588 123.677 10.8162 123.221 9.28962 122.418C11.1222 125.801 14.7387 128.105 18.9022 128.105C24.917 128.105 29.7931 123.299 29.7931 117.371C29.7934 113.268 27.456 109.704 24.0227 107.898Z" fill="#F1D333"/>
<path d="M111.813 69.9922H117.823C118.764 74.5782 122.884 78.042 127.811 78.042C133.429 78.042 138 73.5372 138 68C138 62.4628 133.429 57.958 127.81 57.958C122.884 57.958 118.763 61.4218 117.823 66.0078H111.813C111.332 55.8601 107.203 46.6366 100.689 39.5872L111.515 28.9189C113.646 30.4481 116.266 31.3536 119.098 31.3536C126.218 31.3536 132.01 25.645 132.01 18.6283C132.01 11.6115 126.218 5.90325 119.098 5.90325C111.978 5.90325 106.186 11.6118 106.186 18.6283C106.186 21.4192 107.104 24.0013 108.656 26.1014L97.8307 36.7697C90.6776 30.3506 81.3184 26.2809 71.0215 25.8076V19.8847C75.6749 18.9579 79.1896 14.897 79.1896 10.042C79.1896 4.50473 74.6187 0 69 0C63.3814 0 58.8104 4.50473 58.8104 10.042C58.8104 14.897 62.3251 18.9579 66.9785 19.8847V25.8073C56.6816 26.2809 47.3224 30.3503 40.1693 36.7694L29.3447 26.1019C30.8966 24.0016 31.8155 21.4192 31.8155 18.6283C31.8155 14.391 29.6859 10.4452 26.1189 8.07314C25.1928 7.45795 23.9365 7.69808 23.3126 8.61023C22.6881 9.52239 22.932 10.7605 23.8573 11.3759C26.3089 13.0061 27.7722 15.7173 27.7722 18.6283C27.7722 23.4483 23.7929 27.37 18.902 27.37C14.011 27.37 10.032 23.4483 10.032 18.6283C10.032 14.7358 12.6828 11.276 16.4783 10.2149C17.5524 9.91445 18.1761 8.81291 17.8713 7.75439C17.5664 6.69588 16.4481 6.08202 15.3749 6.38164C9.8484 7.92705 5.98898 12.963 5.98898 18.6283C5.98898 25.6456 11.7817 31.3544 18.9022 31.3544C21.7345 31.3544 24.3548 30.4489 26.4858 28.9194L37.3104 39.5869C30.7966 46.6363 26.6674 55.8599 26.1868 66.0075H20.1771C19.2367 61.4215 15.1161 57.9578 10.1896 57.9578C4.57098 57.958 0 62.4628 0 68C0 73.5372 4.57098 78.042 10.1896 78.042C15.1161 78.042 19.2367 74.5782 20.1771 69.9922H26.1871C26.6677 80.1399 30.7969 89.3634 37.3107 96.4128L26.4852 107.081C24.3543 105.552 21.7342 104.646 18.9022 104.646C11.7823 104.646 5.99006 110.355 5.99006 117.372C5.99006 124.388 11.7823 130.097 18.9022 130.097C26.0222 130.097 31.8144 124.388 31.8144 117.372C31.8144 114.581 30.8958 111.999 29.3439 109.899L40.1693 99.2303C47.3224 105.649 56.6816 109.719 66.9785 110.192V116.115C62.3251 117.042 58.8104 121.103 58.8104 125.958C58.8104 131.495 63.3814 136 69 136C74.6187 136 79.1896 131.495 79.1896 125.958C79.1896 121.103 75.6749 117.042 71.0215 116.115V110.193C81.3184 109.719 90.6776 105.65 97.8307 99.2306L108.655 109.898C107.103 111.998 106.185 114.581 106.185 117.372C106.185 124.389 111.977 130.098 119.098 130.098C126.218 130.098 132.011 124.389 132.011 117.372C132.011 115.994 131.788 114.638 131.349 113.339C130.996 112.295 129.851 111.731 128.793 112.079C127.733 112.427 127.161 113.555 127.514 114.599C127.815 115.49 127.968 116.423 127.968 117.371C127.968 122.191 123.989 126.113 119.098 126.113C114.207 126.113 110.228 122.192 110.228 117.371C110.228 112.551 114.207 108.63 119.098 108.63C120.217 108.63 121.309 108.833 122.342 109.233C123.38 109.635 124.555 109.132 124.963 108.108C125.372 107.084 124.86 105.927 123.821 105.525C122.315 104.941 120.726 104.645 119.098 104.645C116.266 104.645 113.646 105.551 111.515 107.08L100.69 96.4128C107.203 89.3634 111.333 80.1399 111.813 69.9922ZM127.81 61.9424C131.2 61.9424 133.957 64.6598 133.957 68C133.957 71.3402 131.2 74.0576 127.81 74.0576C124.421 74.0576 121.664 71.3402 121.664 68C121.664 64.6598 124.421 61.9424 127.81 61.9424ZM119.098 9.88762C123.988 9.88762 127.967 13.8088 127.967 18.6283C127.967 23.448 123.988 27.3692 119.098 27.3692C114.207 27.3692 110.229 23.448 110.229 18.6283C110.229 13.8085 114.207 9.88762 119.098 9.88762ZM62.8533 10.042C62.8533 6.70172 65.6109 3.98438 69 3.98438C72.3891 3.98438 75.1467 6.70172 75.1467 10.042C75.1467 13.3822 72.3891 16.0995 69 16.0995C65.6109 16.0995 62.8533 13.3819 62.8533 10.042ZM10.1896 74.0576C6.80027 74.0576 4.04297 71.3402 4.04297 68C4.04297 64.6598 6.80027 61.9424 10.1896 61.9424C13.579 61.9424 16.336 64.6598 16.336 68C16.336 71.3402 13.5787 74.0576 10.1896 74.0576ZM69 29.7436C90.4048 29.7436 107.819 46.9054 107.819 68C107.819 89.0946 90.4048 106.256 69 106.256C47.5952 106.256 30.181 89.0949 30.181 68C30.181 46.9051 47.5952 29.7436 69 29.7436ZM18.9022 126.112C14.0116 126.112 10.033 122.191 10.033 117.372C10.033 112.552 14.0119 108.631 18.9022 108.631C23.7926 108.631 27.7714 112.552 27.7714 117.372C27.7714 122.191 23.7926 126.112 18.9022 126.112ZM75.1467 125.958C75.1467 129.298 72.3891 132.016 69 132.016C65.6109 132.016 62.8533 129.298 62.8533 125.958C62.8533 122.618 65.6109 119.9 69 119.9C72.3891 119.9 75.1467 122.618 75.1467 125.958Z" fill="black"/>
<path d="M46.1301 92.5305H57.5461C57.5523 92.5305 57.5583 92.5312 57.5645 92.5312C57.5707 92.5312 57.5766 92.5305 57.5828 92.5305H64.2831C65.3997 92.5305 66.3045 91.6385 66.3045 90.5383C66.3045 89.438 65.3997 88.5461 64.2831 88.5461H59.5859V85.1726C59.5859 84.0724 58.6811 83.1805 57.5645 83.1805C56.4478 83.1805 55.543 84.0724 55.543 85.1726V88.5461H48.1516V78.7339C48.1516 73.9139 52.1296 69.9922 57.0189 69.9922H80.9803C85.8698 69.9922 89.8476 73.9139 89.8476 78.7339V88.5461H82.4562V85.1726C82.4562 84.0724 81.5514 83.1805 80.4347 83.1805C79.3181 83.1805 78.4132 84.0724 78.4132 85.1726V88.5461H73.7167C72.6 88.5461 71.6952 89.438 71.6952 90.5383C71.6952 91.6385 72.6 92.5305 73.7167 92.5305H80.4169C80.4231 92.5305 80.4291 92.5312 80.4353 92.5312C80.4415 92.5312 80.4474 92.5305 80.4536 92.5305H91.8696C92.9863 92.5305 93.8911 91.6385 93.8911 90.5383V78.7339C93.8911 71.7166 88.0997 66.0078 80.9808 66.0078H79.48C82.6438 63.1863 84.6351 59.11 84.6351 54.5838C84.6351 46.0875 77.6214 39.1754 69.0001 39.1754C60.3789 39.1754 53.3652 46.0875 53.3652 54.5838C53.3652 59.11 55.3565 63.1863 58.5202 66.0078H57.0195C49.9006 66.0078 44.1092 71.7166 44.1092 78.7339V90.5383C44.1086 91.6385 45.0137 92.5305 46.1301 92.5305ZM57.4079 54.5838C57.4079 48.2848 62.6079 43.1598 68.9999 43.1598C75.3918 43.1598 80.5919 48.2845 80.5919 54.5838C80.5919 60.8831 75.3918 66.0078 68.9999 66.0078C62.6079 66.0078 57.4079 60.8831 57.4079 54.5838Z" fill="black"/>
</svg>
