<svg width="29" height="40" viewBox="0 0 29 40" fill="none" xmlns="http://www.w3.org/2000/svg">
<path d="M28.302 0H4.11589C2.31776 0 0.860107 1.45766 0.860107 3.25578V36.7441C0.860107 38.5423 2.31776 39.9999 4.11589 39.9999H28.302C28.5588 39.9999 28.7671 39.7916 28.7671 39.5348V0.465078C28.7671 0.208281 28.5588 0 28.302 0ZM24.2909 30.3996L22.7507 31.2888C19.4503 33.1943 15.2376 32.0653 13.3323 28.7652L7.42347 18.5306C5.51815 15.2305 6.64651 11.0178 9.94706 9.11227L11.4872 8.22297C13.0453 7.32328 15.035 7.85609 15.9347 9.41477L17.4675 12.0695C18.2953 13.5034 18.0649 15.4841 15.944 16.7086L19.1705 22.297C21.315 21.059 23.1384 21.8917 23.9497 23.2971L25.4825 25.952C26.3803 27.5068 25.8457 29.502 24.2909 30.3996Z" fill="#FF0000"/>
</svg>
