<svg width="119" height="119" viewBox="0 0 119 119" fill="none" xmlns="http://www.w3.org/2000/svg">
<circle cx="59.5" cy="59.5" r="59.5" fill="#FF0000"/>
<path d="M69.6367 45.2667C68.5808 44.5139 67.445 43.8803 66.2496 43.3774L64.8987 46.6002C65.8537 47.0027 66.7616 47.5091 67.6058 48.1102L69.6367 45.2667Z" fill="white"/>
<path d="M74.773 51.0011C74.1421 49.8724 73.3877 48.8173 72.5238 47.8552L69.9197 50.1867C70.611 50.9599 71.2153 51.8068 71.7216 52.7121L74.773 51.0011Z" fill="white"/>
<path d="M72.9189 55.5571C75.0848 62.9569 70.842 70.7114 63.4423 72.8773C56.0425 75.0433 48.288 70.8005 46.1221 63.4008C43.9561 56.001 48.1989 48.2465 55.5986 46.0806C57.6545 45.4788 59.8212 45.3582 61.9311 45.7281L62.534 42.2834C61.532 42.1106 60.517 42.0234 59.5 42.0229C49.8584 42.0354 42.0525 49.8616 42.0649 59.5033C42.0774 69.145 49.9035 76.9509 59.5453 76.9384C69.1869 76.926 76.9928 69.0998 76.9804 59.4581C76.9782 57.8065 76.7417 56.1636 76.2779 54.5784L72.9189 55.5571Z" fill="white"/>
<path d="M87 59.5L82.5224 53.3306L83.3176 45.7491L76.3548 42.6452L73.2509 35.6824L65.6694 36.4776L59.5 32L53.3306 36.4776L45.7491 35.6824L42.6452 42.6452L35.6824 45.7491L36.4776 53.3306L32 59.5L36.4776 65.6694L35.6824 73.2509L42.6452 76.3548L45.7491 83.3176L53.3306 82.5224L59.5 87L65.6694 82.5224L73.2509 83.3176L76.3548 76.3548L83.3176 73.2509L82.5224 65.6694L87 59.5ZM73.7053 73.7053L71.0837 79.5758L64.7011 78.8994L59.5 82.6832L54.2989 78.8994L47.9093 79.5688L45.2877 73.6983L39.4172 71.0767L40.1006 64.7011L36.3168 59.5L40.1006 54.2989L39.4242 47.9093L45.2947 45.2877L47.9163 39.4172L54.3058 40.0866L59.5 36.3168L64.7011 40.1006L71.0907 39.4312L73.7123 45.3017L79.5828 47.9233L78.8994 54.2989L82.6832 59.5L78.8994 64.7011L79.5688 71.0907L73.7053 73.7053Z" fill="white"/>
<path d="M51.9971 58.2643L49.5259 60.7356L56.0046 67.2143L67.7264 55.4925L65.2552 53.0212L56.0046 62.2718L51.9971 58.2643Z" fill="white"/>
</svg>
