<svg width="87" height="24" viewBox="0 0 87 24" fill="none" xmlns="http://www.w3.org/2000/svg">
<path d="M12.1106 23.96C8.83063 23.96 6.07063 22.84 3.83063 20.6C1.59063 18.36 0.470625 15.56 0.470625 12.2C0.470625 8.76 1.59063 6 3.83063 3.92C6.07063 1.76 8.83063 0.679999 12.1106 0.679999C15.3906 0.679999 18.1506 1.76 20.3906 3.92C22.6306 6 23.7506 8.76 23.7506 12.2C23.7506 15.56 22.6306 18.36 20.3906 20.6C18.1506 22.84 15.3906 23.96 12.1106 23.96ZM43.5169 23.96C40.2369 23.96 37.4769 22.84 35.2369 20.6C32.9969 18.36 31.8769 15.56 31.8769 12.2C31.8769 8.76 32.9969 6 35.2369 3.92C37.4769 1.76 40.2369 0.679999 43.5169 0.679999C46.7969 0.679999 49.5569 1.76 51.7969 3.92C54.0369 6 55.1569 8.76 55.1569 12.2C55.1569 15.56 54.0369 18.36 51.7969 20.6C49.5569 22.84 46.7969 23.96 43.5169 23.96ZM74.9231 23.96C71.6431 23.96 68.8831 22.84 66.6431 20.6C64.4031 18.36 63.2831 15.56 63.2831 12.2C63.2831 8.76 64.4031 6 66.6431 3.92C68.8831 1.76 71.6431 0.679999 74.9231 0.679999C78.2031 0.679999 80.9631 1.76 83.2031 3.92C85.4431 6 86.5631 8.76 86.5631 12.2C86.5631 15.56 85.4431 18.36 83.2031 20.6C80.9631 22.84 78.2031 23.96 74.9231 23.96Z" fill="white"/>
</svg>
