<svg width="435" height="302" viewBox="0 0 435 302" fill="none" xmlns="http://www.w3.org/2000/svg">
<g clip-path="url(#clip0)">
<path d="M203.401 133.206C203.401 191.831 168.552 212.301 125.563 212.301C82.5747 212.301 47.7256 191.831 47.7256 133.206C47.7256 74.5805 125.563 0 125.563 0C125.563 0 203.401 74.5805 203.401 133.206Z" fill="#FF0000" fill-opacity="0.4"/>
<path d="M122.728 203.333L123.525 154.269L156.701 93.5696L123.65 146.572L124.008 124.511L146.873 80.5957L124.103 118.673L124.748 78.9947L149.232 44.0327L124.849 72.7553L125.252 0L122.721 96.315L122.929 92.3416L98.0356 54.2354L122.53 99.9689L120.21 144.282L120.141 143.106L91.4434 103.005L120.054 147.262L119.764 152.803L119.712 152.887L119.736 153.342L113.851 265.769H121.714L122.657 207.698L151.197 163.55L122.728 203.333Z" fill="#4D4D4D"/>
<path d="M435 157.217C435 205.204 406.474 221.96 371.286 221.96C336.098 221.96 307.572 205.204 307.572 157.217C307.572 109.229 371.286 48.1816 371.286 48.1816C371.286 48.1816 435 109.229 435 157.217Z" fill="#FF0000" fill-opacity="0.4"/>
<path d="M368.965 214.619L369.618 174.458L396.774 124.773L369.72 168.158L370.013 150.1L388.73 114.153L370.091 145.321L370.619 112.843L390.66 84.2245L370.701 107.736L371.031 48.1816L368.96 127.02L369.13 123.768L348.753 92.5758L368.803 130.011L366.904 166.284L366.848 165.321L343.357 132.496L366.777 168.722L366.539 173.258L366.497 173.327L366.516 173.699L361.699 265.726H368.135L368.907 218.192L392.269 182.055L368.965 214.619Z" fill="#4D4D4D"/>
<path d="M215.286 275.057C334.185 275.057 430.572 270.184 430.572 264.173C430.572 258.163 334.185 253.29 215.286 253.29C96.3868 253.29 0 258.163 0 264.173C0 270.184 96.3868 275.057 215.286 275.057Z" fill="#333333"/>
<path d="M346.436 284.019C366.8 284.019 383.309 283.184 383.309 282.155C383.309 281.125 366.8 280.291 346.436 280.291C326.071 280.291 309.562 281.125 309.562 282.155C309.562 283.184 326.071 284.019 346.436 284.019Z" fill="#3F3D56"/>
<path d="M213.006 302C233.371 302 249.88 301.166 249.88 300.136C249.88 299.107 233.371 298.272 213.006 298.272C192.642 298.272 176.133 299.107 176.133 300.136C176.133 301.166 192.642 302 213.006 302Z" fill="#3F3D56"/>
<path d="M111.776 289.318C158.302 289.318 196.019 287.412 196.019 285.06C196.019 282.707 158.302 280.801 111.776 280.801C65.2507 280.801 27.5342 282.707 27.5342 285.06C27.5342 287.412 65.2507 289.318 111.776 289.318Z" fill="#3F3D56"/>
<path d="M51.3774 244.068L42.0615 243.958L41.8649 260.65L51.1807 260.76L51.3774 244.068Z" fill="#2F2E41"/>
<path d="M38.757 260.808C38.776 259.2 35.3156 257.855 31.0281 257.805C26.7406 257.754 23.2495 259.017 23.2306 260.625C23.2116 262.233 26.672 263.577 30.9595 263.628C35.247 263.678 38.7381 262.416 38.757 260.808Z" fill="#2F2E41"/>
<path d="M57.3928 260.639C57.4117 259.031 53.9513 257.687 49.6638 257.636C45.3763 257.586 41.8853 258.848 41.8663 260.456C41.8474 262.064 45.3077 263.409 49.5952 263.459C53.8827 263.51 57.3738 262.247 57.3928 260.639Z" fill="#2F2E41"/>
<path d="M84.4667 236.945C84.4667 258.327 71.7575 265.792 56.0786 265.792C55.7154 265.792 55.3527 265.788 54.9907 265.78C54.2642 265.764 53.5447 265.73 52.8338 265.681C38.6839 264.68 27.6904 256.83 27.6904 236.945C27.6904 216.366 53.9858 190.399 55.961 188.478L55.9644 188.474C56.0405 188.4 56.0786 188.364 56.0786 188.364C56.0786 188.364 84.4667 215.564 84.4667 236.945Z" fill="#FF0000"/>
<path d="M55.0441 262.521L65.4269 248.012L55.0181 264.114L54.9905 265.78C54.264 265.764 53.5445 265.73 52.8336 265.681L53.9527 244.29L53.944 244.124L53.9631 244.092L54.0686 242.072L43.6338 225.93L54.1014 240.557L54.1257 240.986L54.9714 224.823L46.038 208.143L55.0804 221.986L55.9608 188.478L55.9642 188.364V188.474L55.8172 214.898L64.7109 204.422L55.7809 217.174L55.5457 231.645L63.8495 217.757L55.5111 233.774L55.3796 241.82L67.435 222.49L55.3347 244.627L55.0441 262.521Z" fill="#4D4D4D"/>
<path d="M279.195 243.88L270.29 246.617L275.194 262.573L284.099 259.836L279.195 243.88Z" fill="#2F2E41"/>
<path d="M297.006 238.408L288.101 241.145L293.004 257.101L301.91 254.364L297.006 238.408Z" fill="#2F2E41"/>
<path d="M283.526 263.261C287.625 262.002 290.565 259.734 290.092 258.197C289.62 256.66 285.914 256.435 281.816 257.695C277.717 258.955 274.777 261.222 275.25 262.759C275.722 264.296 279.428 264.521 283.526 263.261Z" fill="#2F2E41"/>
<path d="M301.224 257.416C305.322 256.156 308.262 253.889 307.789 252.352C307.317 250.815 303.612 250.59 299.513 251.85C295.414 253.109 292.475 255.377 292.947 256.914C293.419 258.451 297.125 258.676 301.224 257.416Z" fill="#2F2E41"/>
<path d="M221.886 233.03C221.886 252.657 210.219 259.51 195.827 259.51C195.493 259.51 195.16 259.506 194.828 259.499C194.161 259.485 193.501 259.453 192.848 259.408C179.859 258.489 169.768 251.283 169.768 233.03C169.768 214.139 193.905 190.303 195.719 188.539L195.722 188.536C195.792 188.467 195.827 188.434 195.827 188.434C195.827 188.434 221.886 213.403 221.886 233.03Z" fill="#FF0000"/>
<path d="M194.876 256.507L204.407 243.189L194.853 257.97L194.827 259.499C194.16 259.485 193.5 259.453 192.847 259.408L193.875 239.772L193.867 239.619L193.884 239.591L193.981 237.736L184.402 222.919L194.011 236.345L194.033 236.739L194.81 221.902L186.609 206.591L194.91 219.298L195.718 188.539L195.721 188.434V188.536L195.586 212.791L203.75 203.175L195.553 214.881L195.337 228.165L202.959 215.416L195.305 230.119L195.184 237.504L206.251 219.76L195.143 240.081L194.876 256.507Z" fill="#4D4D4D"/>
<path d="M324.367 241.215C324.367 262.597 311.658 270.062 295.979 270.062C295.616 270.062 295.253 270.058 294.891 270.05C294.165 270.035 293.445 270 292.734 269.952C278.584 268.95 267.591 261.101 267.591 241.215C267.591 220.637 293.886 194.67 295.861 192.748L295.865 192.744C295.941 192.67 295.979 192.634 295.979 192.634C295.979 192.634 324.367 219.834 324.367 241.215Z" fill="#FF0000"/>
<path d="M294.943 266.791L305.326 252.282L294.918 268.384L294.89 270.05C294.163 270.035 293.444 270 292.733 269.952L293.852 248.56L293.843 248.394L293.862 248.363L293.968 246.342L283.533 230.2L294.001 244.827L294.025 245.256L294.871 229.093L285.937 212.413L294.98 226.257L295.86 192.748L295.864 192.634V192.744L295.717 219.168L304.61 208.693L295.68 221.444L295.445 235.915L303.749 222.027L295.41 238.045L295.279 246.09L307.334 226.76L295.234 248.897L294.943 266.791Z" fill="#4D4D4D"/>
</g>
<defs>
<clipPath id="clip0">
<rect width="435" height="302" fill="white"/>
</clipPath>
</defs>
</svg>
